<?xml version="1.0" standalone="no"?>
<!DOCTYPE svg PUBLIC "-//W3C//DTD SVG 1.1//EN" "http://www.w3.org/Graphics/SVG/1.1/DTD/svg11.dtd" >
<svg xmlns="http://www.w3.org/2000/svg">
<metadata></metadata>
<defs>
<font id="miller_displayregular" horiz-adv-x="1413" >
<font-face units-per-em="2048" ascent="1638" descent="-410" />
<missing-glyph horiz-adv-x="483" />
<glyph horiz-adv-x="0" />
<glyph horiz-adv-x="682" />
<glyph unicode=" "  horiz-adv-x="483" />
<glyph unicode="&#x09;" horiz-adv-x="483" />
<glyph unicode="&#xa0;" horiz-adv-x="483" />
<glyph unicode="!" horiz-adv-x="747" d="M242 111q0 57 40 97t97 40t97 -40t40 -97t-40 -96.5t-97 -39.5t-97 39.5t-40 96.5zM252 1288q0 58 35.5 98.5t91.5 40.5t91.5 -40.5t35.5 -98.5q0 -34 -17.5 -161t-43.5 -327t-42 -364h-53q-13 165 -38 362.5t-42.5 326t-17.5 163.5z" />
<glyph unicode="&#x22;" horiz-adv-x="802" d="M88 1397q0 48 30 80t83 32t82.5 -32t29.5 -80q0 -21 -10.5 -63.5t-33 -142.5t-44.5 -224h-53q-19 126 -40.5 224t-32.5 141t-11 65zM489 1397q0 48 30 80t83 32t83 -32t30 -80q0 -21 -10.5 -63.5t-33 -142.5t-44.5 -224h-54q-19 126 -40.5 224t-32.5 141t-11 65z" />
<glyph unicode="#" horiz-adv-x="1187" d="M199 262v187l227 55v207l-227 -56v187l227 55v387h49v-373l240 60v313h49v-299l229 55v-186l-229 -55v-207l229 55v-186l-229 -55v-420h-49v405l-240 -59v-346h-49v331zM475 518l240 60v206l-240 -59v-207z" />
<glyph unicode="$" horiz-adv-x="1259" d="M166 274q0 77 33 118.5t94 41.5q48 0 72 -30t24 -76q0 -30 -6.5 -48.5t-15.5 -25.5t-22.5 -20t-22.5 -29q0 -70 52.5 -110.5t145.5 -53.5v510q-148 22 -239 114t-91 222q0 87 34 162.5t110.5 133t185.5 77.5v200h45v-194q54 4 84 4q22 0 68 -4v194h45v-198 q125 -21 208 -81.5t83 -158.5q0 -62 -25.5 -102.5t-77.5 -40.5q-44 0 -71 23.5t-27 68.5q0 43 33.5 81.5t40.5 65.5q-21 72 -164 94v-471q165 -34 251.5 -120t86.5 -236q0 -140 -86 -247.5t-252 -139.5v-289h-45v283q-47 -6 -101 -6q-35 0 -51 2v-279h-45v283 q-69 10 -130.5 33t-112.5 57t-81 84t-30 108zM336 1001q0 -91 39.5 -148t144.5 -83v438q-84 -20 -134 -71.5t-50 -135.5zM565 37q16 -2 51 -2q52 0 101 6v491q-20 5 -42 8t-60.5 4.5t-49.5 2.5v-510zM565 764q43 -8 152 -16v471q-23 2 -68 2q-37 0 -84 -7v-450zM762 49 q91 22 145 81t54 155q0 84 -50 147.5t-149 93.5v-477z" />
<glyph unicode="%" horiz-adv-x="1798" d="M133 938q0 91 48 169t122 120.5t152 42.5q86 0 159 -35t121.5 -111.5t48.5 -183.5q0 -131 -101 -226.5t-228 -95.5q-133 0 -227.5 86t-94.5 234zM293 946q0 -130 42.5 -204t125.5 -74q69 0 115.5 72t46.5 196q0 135 -43.5 210t-122.5 75q-78 0 -121 -75.5t-43 -199.5z M428 -170l875 1583l63 -31l-879 -1583zM1014 291q0 137 100 234.5t221 97.5q64 0 122 -20.5t105 -59.5t75 -104t28 -146q0 -132 -101 -227t-229 -95q-133 0 -227 86.5t-94 233.5zM1174 299q0 -129 42.5 -204t124.5 -75q68 0 115 73.5t47 195.5q0 133 -43.5 208.5 t-122.5 75.5q-77 0 -120 -76.5t-43 -197.5z" />
<glyph unicode="&#x26;" horiz-adv-x="1521" d="M74 305q0 95 40 173.5t111 141.5t193 140q-82 128 -115 203.5t-33 148.5q0 136 105 225.5t248 89.5q127 0 192.5 -80t65.5 -194q0 -91 -64 -178t-188 -162q134 -197 338 -451q71 101 118.5 203.5t47.5 169.5q0 65 -185 105v43h588v-43q-106 -11 -170 -31t-109 -70 q-23 -26 -60.5 -99.5t-89 -164t-106.5 -156.5q42 -54 108.5 -118.5t104.5 -87.5q50 -30 124 -47.5t143 -20.5v-45h-480l-143 176q-43 -44 -80.5 -76t-88 -65t-107.5 -50.5t-117 -17.5q-59 0 -114.5 12t-106 39t-88.5 66t-60 95.5t-22 125.5zM285 391q0 -130 72 -213.5 t196 -83.5q78 0 148 32t120 93q-35 47 -120.5 158.5t-149 197t-102.5 144.5q-164 -103 -164 -328zM467 1171q0 -131 133 -315q97 59 141.5 132t44.5 171q0 97 -44.5 151t-114.5 54q-47 0 -81 -21t-50 -54t-22.5 -62t-6.5 -56z" />
<glyph unicode="'" horiz-adv-x="401" d="M88 1397q0 48 30 80t83 32t82.5 -32t29.5 -80q0 -21 -10.5 -63.5t-33 -142.5t-44.5 -224h-53q-19 126 -40.5 224t-32.5 141t-11 65z" />
<glyph unicode="(" horiz-adv-x="747" d="M94 604q0 138 29 261t73.5 215t113 179t133.5 147.5t149 125.5l88 -55q-77 -59 -137 -116t-123.5 -138t-104.5 -168t-67.5 -203.5t-26.5 -247.5q0 -133 27.5 -253t70.5 -209t106 -170t123 -136.5t132 -107.5l-86 -56q-82 62 -144.5 119t-133 144t-116 179.5t-76 219.5 t-30.5 270z" />
<glyph unicode=")" horiz-adv-x="747" d="M68 -272q72 52 131.5 107.5t122.5 136.5t106 170t70.5 209t27.5 253q0 131 -26.5 247.5t-67.5 203.5t-104 168t-123 138t-137 116l88 55q84 -65 149 -125.5t133 -147.5t113 -179t73.5 -215t28.5 -261q0 -143 -30 -270t-76 -219.5t-116 -179.5t-132.5 -144t-144.5 -119z " />
<glyph unicode="*" horiz-adv-x="804" d="M123 997q0 18 7.5 27.5t28.5 17t47 14t75.5 23t101.5 39.5q-49 22 -97.5 38t-75 23t-48.5 15t-30.5 18.5t-8.5 28.5q0 24 16 43t37 19q17 0 41.5 -21t71.5 -62.5t98 -74.5q-7 60 -25 134.5t-18 92.5q0 55 55 55q29 0 43.5 -15t14.5 -40q0 -12 -19.5 -86t-25.5 -141 q51 36 98.5 78.5t70.5 61t40 18.5q22 0 37.5 -18.5t15.5 -43.5q0 -18 -8 -28t-29.5 -18t-47.5 -15t-74 -23.5t-97 -38.5q47 -21 94 -37t73.5 -23t49 -15t31 -18.5t8.5 -27.5q0 -29 -18 -46t-40 -17q-12 0 -35 20t-69.5 61.5t-97.5 76.5q6 -68 24.5 -142.5t18.5 -85.5 q0 -24 -15.5 -39.5t-42.5 -15.5q-55 0 -55 55q0 15 18.5 87t26.5 143q-52 -35 -100.5 -77t-72.5 -62.5t-38 -20.5q-21 0 -38 19.5t-17 43.5z" />
<glyph unicode="+" horiz-adv-x="1187" d="M100 485v95h445v446h98v-446h444v-95h-444v-446h-98v446h-445z" />
<glyph unicode="," horiz-adv-x="512" d="M94 -295q191 113 207 299h-55q-73 0 -107.5 37.5t-34.5 91.5q0 46 35 83.5t92 37.5q87 0 129.5 -58t42.5 -159q0 -66 -30 -129.5t-78 -112t-91.5 -81t-86.5 -56.5z" />
<glyph unicode="-" horiz-adv-x="778" d="M82 434v156h614v-156h-614z" />
<glyph unicode="." horiz-adv-x="512" d="M121 117q0 57 40 97t97 40t97 -40t40 -97t-40 -96t-97 -39t-97 39t-40 96z" />
<glyph unicode="/" horiz-adv-x="860" d="M49 -408l639 1948l96 -27l-641 -1947z" />
<glyph unicode="0" horiz-adv-x="1257" d="M102 592q0 153 44.5 282.5t119.5 215t171.5 133t201.5 47.5q122 0 221 -49.5t163 -135t98 -197.5t34 -239q0 -152 -44 -281.5t-118.5 -215t-171.5 -133.5t-203 -48q-122 0 -221.5 50t-163 136t-97.5 197.5t-34 237.5zM324 618q0 -129 18.5 -236.5t55 -188t94.5 -125.5 t133 -45q131 0 220 165t89 435q0 169 -31 300.5t-100.5 213.5t-169.5 82q-132 0 -220.5 -165t-88.5 -436z" />
<glyph unicode="1" horiz-adv-x="874" d="M61 1194l19 35q106 -47 215 -47q142 0 287 86h26q-28 -172 -28 -307v-789q0 -33 16 -59.5t43 -38.5q21 -10 71.5 -18.5t82.5 -10.5v-45h-635v45q119 6 161 21q28 9 46 36t18 60v919q-38 -10 -92 -10q-81 0 -230 123z" />
<glyph unicode="2" horiz-adv-x="1181" d="M109 0v51q174 132 280 226.5t221 214.5q132 137 183 253t51 252q0 111 -63.5 165.5t-145.5 54.5q-79 0 -146 -36.5t-108.5 -94t-64.5 -122.5t-23 -126q0 -65 23.5 -99t89.5 -34q16 0 31 2t26.5 4.5t23.5 8.5l20 10t18.5 13t15 13t14 15.5t12.5 15t12 16t11 14.5l24 -22 q-111 -179 -290 -179q-78 0 -135.5 51t-57.5 150q0 71 40 150t108.5 147t173 112t221.5 44q168 0 268 -85t100 -235q0 -107 -36.5 -196.5t-121.5 -177.5t-204 -171.5t-303 -187.5l-60 -51h510q120 0 213 196l39 -12l-121 -350h-849z" />
<glyph unicode="3" horiz-adv-x="1157" d="M59 227q0 77 45.5 122.5t110.5 45.5q100 0 100 -100q0 -24 -9.5 -40.5t-23.5 -26t-28 -18.5t-23.5 -23.5t-9.5 -34.5q0 -64 55 -108t166 -44q66 0 134 32.5t121.5 86.5t87.5 131.5t34 161.5q0 213 -164 213q-19 0 -39 -6.5t-33.5 -12t-36.5 -23.5t-30.5 -24t-34.5 -31 t-30 -28l-41 49q26 18 79 55t76.5 54t65 49.5t61 53t46.5 53t39 61.5t21 66t9 77q0 201 -191 201q-41 0 -88 -17t-90.5 -48t-72.5 -84t-29 -116q0 -52 22 -80t78 -28q53 0 123 65l25 -24q-39 -44 -106.5 -88.5t-110.5 -44.5q-91 0 -140 44t-49 111q0 92 68.5 176 t183.5 134.5t242 50.5q93 0 164 -29.5t108 -74t54.5 -88t17.5 -81.5q0 -89 -79.5 -172.5t-246.5 -124.5l-37 -30q36 6 78 6t81.5 -7.5t80 -27.5t71 -50.5t49.5 -80.5t19 -113q0 -138 -78.5 -241.5t-211.5 -156t-300 -52.5q-95 0 -180 30t-144 96t-59 154z" />
<glyph unicode="4" horiz-adv-x="1165" d="M49 432v47l676 809h55v-772h17q56 0 81.5 1t55 7t45.5 19q26 22 41.5 67t17.5 88h39v-458h-35q-2 50 -17.5 98.5t-43.5 71.5q-7 6 -16 10t-22 6.5t-24 3.5t-30.5 1.5t-31.5 0.5h-38h-39v-264q0 -74 56 -98q48 -20 137 -25v-45h-580v45q112 6 139 16q58 18 58 95v276h-541 zM152 516h438v526z" />
<glyph unicode="5" horiz-adv-x="1069" d="M72 215q0 70 41.5 100.5t87.5 30.5q42 0 64 -24.5t22 -65.5q0 -29 -14.5 -62t-14.5 -69q8 -44 60 -75.5t131 -31.5q66 0 118 33t83 83.5t51.5 116.5t28 125.5t7.5 117.5q0 67 -23 116t-60 74.5t-75.5 37t-78.5 11.5q-77 0 -159 -44t-105 -120l-54 11l156 684h53 q28 -32 93 -56t173 -24q102 0 167 25t139 83l26 -22q-35 -69 -95.5 -121.5t-121 -80.5t-128.5 -45t-110 -21.5t-73 -4.5q-97 0 -121 4l-76 -299q46 37 124 60.5t149 23.5q80 0 153.5 -26.5t131 -75.5t92 -125.5t34.5 -169.5q0 -120 -72.5 -217.5t-185.5 -149t-239 -51.5 q-172 0 -275.5 70.5t-103.5 173.5z" />
<glyph unicode="6" horiz-adv-x="1157" d="M119 555q0 179 61 344t159 281t224 185t254 69q74 0 129 -21.5t83 -54.5t41 -66t13 -63q0 -57 -24 -86t-80 -29q-29 0 -47.5 9.5t-28.5 29t-16 39.5t-15 49.5t-20 50.5q-22 46 -45 60t-78 14q-136 0 -247.5 -185.5t-149.5 -478.5l8 -4q67 88 147 129t191 41 q68 0 133.5 -30.5t117 -84t83.5 -135t32 -174.5q0 -62 -14 -124t-50 -126.5t-89.5 -112.5t-139.5 -79t-194 -31q-90 0 -169.5 39.5t-139.5 112t-94.5 184.5t-34.5 248zM319 403q0 -177 73.5 -281t170.5 -104q64 0 112.5 29t76 73t45 104.5t23 113t5.5 108.5q0 168 -63 257.5 t-191 89.5q-45 0 -88 -22t-80.5 -66t-60.5 -122.5t-23 -179.5z" />
<glyph unicode="7" horiz-adv-x="1036" d="M82 807l123 526h37l16 -114h803v-19q-125 -180 -196 -310.5t-144 -320.5q-71 -184 -106 -318.5t-46 -320.5q-5 -77 -38 -126.5t-97 -49.5q-53 0 -78.5 32.5t-25.5 111.5q0 111 248 587q138 265 317 551h-551q-48 0 -89 -25t-67 -64t-41.5 -76.5t-23.5 -73.5z" />
<glyph unicode="8" horiz-adv-x="1142" d="M123 279q0 60 26.5 117.5t68 99t85 70.5t84.5 44v8q-79 39 -124 75t-71 91.5t-26 133.5q0 102 62.5 187t158.5 131t199 46q178 0 280.5 -82t102.5 -219q0 -67 -62 -149t-162 -125v-9q43 -17 76 -33.5t72.5 -45t65.5 -62t43.5 -83t17.5 -107.5q0 -118 -73.5 -211 t-184.5 -140t-232 -47q-179 0 -293 89.5t-114 220.5zM272 276q0 -109 71 -181t206 -72q119 0 206 70.5t87 189.5q0 66 -35.5 120.5t-96 91t-126 60.5t-140.5 39q-76 -40 -124 -128t-48 -190zM336 1010q0 -227 352 -285q150 60 150 283q0 101 -67.5 162t-182.5 61 q-111 0 -181.5 -64.5t-70.5 -156.5z" />
<glyph unicode="9" horiz-adv-x="1157" d="M49 0q0 119 111 119q34 0 55.5 -20.5t28.5 -45.5t15.5 -62t16.5 -54q38 -82 132 -82q86 0 160.5 57.5t127.5 155t87.5 221t47.5 260.5l-14 2q-129 -178 -332 -178q-71 0 -137 28.5t-117.5 80.5t-82.5 134t-31 181q0 85 29 167.5t84 151.5t145 111.5t200 42.5 q69 0 132 -17.5t124.5 -61.5t106 -111t71.5 -173t27 -241q0 -170 -49 -326.5t-138 -279t-225.5 -196t-299.5 -73.5q-68 0 -122.5 20t-86.5 51.5t-49 67t-17 70.5zM332 836q0 -192 58 -284.5t185 -92.5q43 0 86.5 18.5t85.5 57.5t68.5 112.5t26.5 169.5q0 191 -80 298.5 t-187 107.5q-243 0 -243 -387z" />
<glyph unicode=":" horiz-adv-x="679" d="M203 119q0 57 40 97t97 40t97 -40t40 -97t-40 -96t-97 -39t-97 39t-40 96zM203 793q0 57 40 97t97 40t97 -40t40 -97t-40 -96.5t-97 -39.5t-97 39.5t-40 96.5z" />
<glyph unicode=";" horiz-adv-x="679" d="M176 -295q191 113 207 299h-55q-73 0 -107.5 37.5t-34.5 91.5q0 46 35 83.5t92 37.5q87 0 129.5 -58t42.5 -159q0 -54 -20.5 -106.5t-51 -92.5t-71.5 -76.5t-74.5 -60t-66.5 -41.5zM211 803q0 59 37 94t92 35q57 0 90 -39.5t33 -93.5q0 -57 -33 -98.5t-92 -41.5 q-58 0 -92.5 39t-34.5 105z" />
<glyph unicode="&#x3c;" horiz-adv-x="1146" d="M113 492v81l905 420v-106l-776 -355l776 -354v-106z" />
<glyph unicode="=" horiz-adv-x="1187" d="M141 322v94h906v-94h-906zM141 649v94h906v-94h-906z" />
<glyph unicode="&#x3e;" horiz-adv-x="1146" d="M129 72v106l776 354l-776 355v106l905 -420v-81z" />
<glyph unicode="?" horiz-adv-x="987" d="M109 1190q0 82 94.5 145.5t247.5 63.5q209 0 321.5 -114t112.5 -296q0 -170 -127 -286.5t-326 -141.5l-8 -196h-59v352q54 8 95.5 18t87 31.5t75.5 51.5t49.5 78t19.5 110q0 337 -246 337q-102 0 -137 -43q1 -4 10 -37.5t9 -82.5t-39.5 -78t-75.5 -29q-52 0 -78 32.5 t-26 84.5zM262 111q0 57 40 97t97 40t97.5 -40t40.5 -97t-40.5 -96.5t-97.5 -39.5t-97 39.5t-40 96.5z" />
<glyph unicode="@" horiz-adv-x="2048" d="M168 367q0 148 46 291.5t135 266.5t209.5 217t280.5 147.5t337 53.5q137 0 251 -36.5t193 -99t133.5 -147t79.5 -179.5t25 -197q0 -160 -73.5 -302.5t-196 -228t-259.5 -85.5q-85 0 -136.5 42.5t-57.5 120.5l-7 2q-46 -72 -107 -116.5t-122 -44.5q-45 0 -84 13.5 t-72.5 42.5t-53 83.5t-19.5 128.5q0 53 19.5 121t60 140.5t94.5 133t131 99t162 38.5q55 0 95 -31.5t50 -90.5h6l41 110h144l-189 -538q-20 -55 -20 -107q0 -94 86 -94q82 0 161.5 41.5t143.5 114t103.5 182.5t39.5 237q0 126 -42 232.5t-120 184.5t-197.5 121.5 t-267.5 43.5q-100 0 -199 -27t-189.5 -78.5t-168 -130t-134.5 -176t-89.5 -223.5t-32.5 -266q0 -171 53 -311t146 -232t219 -142t271 -50q670 0 872 604l37 -13q-61 -208 -195 -361t-317.5 -232.5t-396.5 -79.5q-135 0 -262 32.5t-239 99.5t-196.5 161.5t-133 227 t-48.5 286.5zM836 307q0 -101 24 -137.5t62 -36.5q118 0 219 178l125 369q-12 78 -43.5 114.5t-89.5 36.5q-80 0 -151 -91t-108.5 -211t-37.5 -222z" />
<glyph unicode="A" d="M-49 0v45q30 2 73 13t70 26q65 38 117 160q45 108 471 1177h78q115 -291 284.5 -726t200.5 -513q13 -34 31 -57t53 -43q61 -33 135 -37v-45h-645v45q70 4 138.5 25t68.5 55q0 26 -8 47l-127 324h-504q-53 -128 -82 -226q-22 -71 -22 -114q0 -26 25.5 -47.5t63.5 -34.5 t75 -20t67 -9v-45h-563zM414 563h450l-227 572z" />
<glyph unicode="B" horiz-adv-x="1366" d="M88 0v45q29 2 80.5 11t71.5 16q63 23 63 98v1047q0 76 -63 102q-75 31 -144 35v45h701q49 0 100 -8t106.5 -28.5t97.5 -51t69.5 -80.5t27.5 -113q0 -67 -19 -120.5t-48.5 -89t-78.5 -64.5t-95.5 -46t-112.5 -36v-19q49 -5 100.5 -18.5t112 -42t107 -68t77.5 -103 t31 -140.5q0 -75 -30.5 -138.5t-79 -105.5t-111.5 -71.5t-126 -42.5t-124 -13h-713zM520 182q10 -68 55.5 -96.5t137.5 -28.5q71 0 125.5 21.5t88 55.5t55.5 81.5t30 95.5t8 101q0 130 -86.5 215.5t-239.5 85.5q-100 0 -174 -4v-527zM520 768h127q159 0 232 85.5t73 225.5 q0 73 -23 126.5t-62 82t-83.5 42t-95.5 13.5q-70 0 -168 -4v-571z" />
<glyph unicode="C" horiz-adv-x="1337" d="M76 682q0 156 55 294t150.5 236.5t229.5 155.5t286 57q82 0 172 -33t137 -77l61 104h84l9 -506h-50q-141 453 -477 453q-81 0 -153 -40t-130.5 -118.5t-93 -210t-34.5 -299.5q0 -136 39 -253t106 -197.5t156.5 -126t189.5 -45.5q91 0 163.5 22t125 65.5t89.5 96t69 123.5 l53 -29q-34 -77 -80 -141t-113 -121.5t-160.5 -90t-205.5 -32.5q-150 0 -276 50.5t-214.5 142.5t-138 225.5t-49.5 294.5z" />
<glyph unicode="D" horiz-adv-x="1595" d="M88 0v45q31 0 81.5 7t70.5 14q63 23 63 100v1051q0 78 -63 104q-71 29 -144 33v45h660q64 0 131 -9.5t143 -33t145 -59.5t132.5 -93t110 -128t74.5 -170.5t28 -215.5q0 -139 -46 -254.5t-123.5 -195t-181.5 -134.5t-218.5 -80.5t-235.5 -25.5h-627zM520 217 q10 -80 60 -119t163 -39q132 0 233.5 46.5t164.5 132t95 200t32 254.5q0 186 -70 333t-200.5 231.5t-299.5 84.5q-88 0 -178 -4v-1120z" />
<glyph unicode="E" horiz-adv-x="1363" d="M78 0v45q34 2 87.5 9.5t74.5 15.5q63 23 63 100v1047q0 37 -13.5 61.5t-49.5 38.5q-29 12 -81.5 23.5t-80.5 13.5v45h1128v-318h-55q-19 74 -88 160t-131 94q-65 8 -170 8h-242v-589h178q53 0 91.5 12.5t49.5 21.5t31 29q21 21 40 81.5t24 107.5h55v-572h-55 q-3 45 -24.5 112t-39.5 87q-18 19 -32.5 30t-51 22t-88.5 11h-178v-450q0 -53 6 -84.5t19.5 -53.5t44 -32t69 -13.5t105.5 -3.5h29q88 0 133 1.5t99 12.5t75 33q42 44 95.5 139.5t70.5 147.5h51l-27 -393h-1212z" />
<glyph unicode="F" horiz-adv-x="1253" d="M78 0v45q123 7 162 21q63 23 63 100v1051q0 37 -13.5 61.5t-49.5 38.5q-29 12 -81.5 23.5t-80.5 13.5v45h1143v-332h-56q-19 76 -88.5 168t-130.5 100q-65 8 -170 8h-256v-595h182q115 0 183 63q21 20 39 74.5t24 113.5h56v-575h-56q-3 48 -23 115.5t-40 87.5 q-63 63 -183 63h-182v-514q0 -73 64 -100q19 -8 73.5 -19t81.5 -12v-45h-661z" />
<glyph unicode="G" horiz-adv-x="1527" d="M76 668q0 209 100.5 382.5t278 274t393.5 100.5q86 0 183 -33t145 -77l65 104h80l10 -491h-47q-29 89 -72 163.5t-105 138t-149 100t-190 36.5q-89 0 -168.5 -45t-141 -129t-97 -216t-35.5 -294q0 -185 61.5 -334t166 -231t230.5 -82q157 0 248.5 75.5t102.5 182.5v125 q0 95 -68 121q-32 12 -97.5 21t-105.5 11v47h678v-47q-4 -1 -41 -6t-61.5 -10t-42.5 -12q-62 -29 -62 -107v-475l-26 -8l-111 125q-288 -109 -493 -109q-91 0 -180.5 28.5t-170.5 87t-143 140t-98.5 196.5t-36.5 247z" />
<glyph unicode="H" horiz-adv-x="1746" d="M96 0v45q102 6 144 21q63 23 63 100v1051q0 74 -63 100q-84 34 -144 37v45h635v-45q-77 -4 -147 -27q-64 -20 -64 -100v-465h707v455q0 73 -64 100q-29 12 -75 24t-72 13v45h635v-45q-73 -4 -144 -27q-63 -20 -63 -100v-1051q0 -69 63 -100q18 -9 67 -19t77 -12v-45h-635 v45q106 6 147 21q64 24 64 100v528h-707v-518q0 -73 64 -100q20 -8 70 -19t77 -12v-45h-635z" />
<glyph unicode="I" horiz-adv-x="831" d="M94 0v45q109 6 150 21q63 23 63 98v1055q0 37 -13.5 60.5t-49.5 37.5q-89 34 -150 37v45h643v-45q-79 -4 -149 -27q-64 -20 -64 -98v-1055q0 -71 64 -98q20 -8 71 -19t78 -12v-45h-643z" />
<glyph unicode="J" horiz-adv-x="1011" d="M0 158q0 61 39.5 104t101.5 43q61 0 97 -37t36 -94q0 -41 -21 -78t-63 -61v-10q20 -5 37 -5q57 0 102 13t75.5 34t52.5 55t34.5 68t19.5 81t9 86.5t2 91.5v768q0 36 -14 60t-49 40q-73 32 -166 37v45h665v-45q-86 -5 -155 -27q-64 -20 -64 -100v-846q0 -46 -18 -100 t-56 -110t-90 -102t-128.5 -75t-163.5 -29q-77 0 -135 18.5t-88.5 48.5t-45 61.5t-14.5 64.5z" />
<glyph unicode="K" horiz-adv-x="1511" d="M96 0v45q102 6 144 21q63 23 63 100v1051q0 74 -63 100q-84 34 -144 37v45h635v-45q-77 -4 -147 -27q-64 -20 -64 -100v-502h23q215 174 362.5 329.5t147.5 225.5q0 21 -19.5 36.5t-51 23t-53 10.5t-42.5 4v45h579v-45q-115 -6 -185 -37q-61 -26 -103 -70 q-38 -40 -114 -123t-110.5 -119.5t-96 -95.5t-126.5 -114q22 -22 85 -87.5t84.5 -88.5t72.5 -76t77.5 -83t67 -75.5t74.5 -87t70 -86.5q75 -96 170 -137q59 -24 147 -29v-45h-750v45q41 2 67.5 5t60.5 12t51.5 27t17.5 46q0 78 -473 551h-33v-510q0 -73 64 -100 q20 -8 70 -19t77 -12v-45h-635z" />
<glyph unicode="L" horiz-adv-x="1288" d="M92 0v45q31 2 80 9t68 14q63 23 63 102v1042q0 75 -63 103q-82 35 -148 39v45h641v-45q-71 -4 -149 -29q-64 -20 -64 -102v-979q0 -40 2.5 -65.5t7 -48t17.5 -34.5t28 -21.5t44.5 -13t61 -5t83.5 -1.5q250 0 301 54q42 46 103 142t75 146h49l-30 -397h-1170z" />
<glyph unicode="M" horiz-adv-x="1964" d="M37 0v45q141 16 190 51q68 49 68 283v749q0 116 -64 168q-34 27 -85.5 41.5t-98.5 16.5v45h461l475 -1043l383 869q40 92 47 174h463v-45q-29 -2 -77 -10t-75 -17q-63 -20 -63 -100v-1051q0 -69 63 -100q18 -9 71.5 -19t82.5 -12v-45h-676v45q40 2 99.5 10t78.5 17 q66 35 66 104v1049l-531 -1202h-38q-40 129 -109 284l-397 889v-807q0 -223 69 -280q24 -20 100.5 -41t110.5 -23v-45h-614z" />
<glyph unicode="N" horiz-adv-x="1609" d="M10 1354v45h422l856 -1077v694q0 232 -69 276q-29 18 -101 39t-108 23v45h610v-45q-30 -2 -97.5 -19.5t-90.5 -31.5q-68 -43 -68 -275v-1042h-76l-917 1155v-750q0 -223 69 -280q24 -20 101 -42t110 -24v-45h-614v45q28 2 100.5 22.5t89.5 32.5q36 26 52 93t16 188v721 q0 46 -18 92t-48 70q-38 30 -108.5 59.5t-110.5 30.5z" />
<glyph unicode="O" horiz-adv-x="1587" d="M78 684q0 337 198 535q210 213 519 213q301 0 520 -213q91 -91 142.5 -225.5t51.5 -284.5q0 -339 -213 -545q-213 -197 -510 -197q-284 0 -489 193q-219 206 -219 524zM326 694q0 -139 29 -258t85.5 -210t147.5 -143t207 -52q154 0 261 89.5t156.5 238t49.5 343.5 q0 104 -15.5 198t-51 180.5t-88.5 149.5t-133 100.5t-179 37.5q-219 0 -344 -178.5t-125 -495.5z" />
<glyph unicode="P" horiz-adv-x="1271" d="M84 1354v45h686q188 0 313 -89.5t125 -242.5q0 -101 -45 -183.5t-120 -134.5t-168.5 -80t-194.5 -28h-160v-471q0 -78 64 -102q20 -7 70.5 -14t90.5 -9v-45h-653v45q31 2 80 9t68 14q63 23 63 102v1051q0 84 -63 104q-79 25 -156 29zM520 702h101q84 0 147.5 24t97.5 58 t55 80.5t27 81.5t6 70q0 63 -14 117t-45.5 102.5t-92 77t-143.5 28.5h-139v-639z" />
<glyph unicode="Q" horiz-adv-x="1603" d="M78 684q0 337 198 535q210 213 519 213q301 0 520 -213q91 -91 142.5 -225.5t51.5 -284.5q0 -405 -354 -615q16 -74 51.5 -126.5t82 -79t92 -37.5t94.5 -11q137 0 239 158l41 -31q-24 -37 -62 -78t-93 -86.5t-127 -74.5t-144 -29q-61 0 -116.5 15t-108.5 48t-94.5 92.5 t-63.5 141.5q-89 -27 -160 -27q-286 0 -489 191q-219 206 -219 524zM326 694q0 -323 133 -501q26 67 66 116t86 75t90.5 38t89.5 12q112 0 205.5 -75.5t129.5 -190.5q136 166 136 534q0 104 -15.5 198t-51 180.5t-88.5 149.5t-133 100.5t-179 37.5q-219 0 -344 -178.5 t-125 -495.5zM498 152q120 -123 297 -123q71 0 139 14q-23 303 -219 303q-19 0 -44.5 -7.5t-59.5 -26.5t-65 -60.5t-48 -99.5z" />
<glyph unicode="R" horiz-adv-x="1509" d="M92 0v45q31 2 80 9t68 14q63 23 63 102v1053q0 82 -63 102q-78 25 -148 29v45h715q81 0 156.5 -18.5t139.5 -55t103 -99.5t39 -143q0 -249 -379 -356v-20q41 -4 84 -17t90.5 -36.5t84.5 -65t51 -94.5q16 -59 36 -162.5t33 -151.5q27 -98 111 -98q46 0 67 38.5t21 143.5 v43h53v-43q0 -148 -57.5 -217.5t-190.5 -69.5q-120 0 -184 85t-88 262q-5 42 -10 71.5t-15.5 69.5t-24 68.5t-36 58.5t-50.5 48t-68.5 30t-90.5 12h-162v-512q0 -78 64 -102q19 -7 68.5 -14t80.5 -9v-45h-641zM520 741h127q72 0 131 15t109 48t78 93.5t28 144.5 q0 299 -293 299h-180v-600z" />
<glyph unicode="S" horiz-adv-x="1120" d="M90 459h47q35 -90 74.5 -159.5t95 -132.5t132 -97.5t167.5 -34.5q132 0 196 68.5t64 189.5q0 92 -53 161.5t-147 106.5q-214 86 -293 121q-121 54 -181.5 142.5t-60.5 222.5q0 162 117.5 270t292.5 108q76 0 157 -29.5t138 -72.5l69 96h70l10 -465h-45q-28 79 -52 132.5 t-62 110.5t-82 90.5t-108 55t-144 21.5q-19 0 -43 -6t-51 -21.5t-49.5 -38.5t-37 -60t-14.5 -83q0 -89 45 -149t135 -109q55 -30 148 -65t131 -54q73 -33 120.5 -63t88.5 -74t60 -103.5t19 -138.5q0 -186 -131.5 -306t-330.5 -120q-208 0 -336 103l-72 -96h-70z" />
<glyph unicode="T" horiz-adv-x="1314" d="M16 1042v357h1282v-357h-49q-12 48 -47 112.5t-84 119.5t-90 61q-65 8 -166 8h-96v-1161q0 -75 63 -102q19 -8 80 -21t88 -14v-45h-680v45q32 2 90.5 10t77.5 15q64 24 64 102v1171h-96q-101 0 -166 -8q-41 -6 -90 -61t-84 -119.5t-47 -112.5h-50z" />
<glyph unicode="U" horiz-adv-x="1619" d="M70 1354v45h637v-45q-78 -4 -148 -27q-63 -20 -63 -100v-817q0 -50 7.5 -94t32 -94t63.5 -85t108 -58.5t161 -23.5q93 0 166.5 24.5t116.5 62.5t71 88t38 94.5t10 89.5v606q0 229 -70 274q-35 23 -102 40.5t-107 19.5v45h613v-45q-35 -2 -97.5 -16.5t-91.5 -32.5 q-67 -43 -67 -273v-626q0 -96 -36 -173.5t-91.5 -126t-128 -81t-140.5 -45.5t-133 -13q-130 0 -235 32.5t-171.5 88.5t-101.5 128t-35 153v848q0 68 -63 102q-26 13 -70.5 23t-72.5 12z" />
<glyph unicode="V" horiz-adv-x="1384" d="M-43 1354v45h635v-45q-70 -4 -134.5 -23.5t-64.5 -52.5q0 -24 10 -51q195 -542 345 -946q325 767 329 778q47 111 47 184q0 46 -75 76t-160 35v45h551v-45q-63 -3 -133 -41q-25 -15 -46 -41.5t-31 -46.5t-30 -62q-341 -792 -502 -1179h-75q-191 532 -447 1233 q-13 34 -31 56.5t-53 43.5q-61 33 -135 37z" />
<glyph unicode="W" horiz-adv-x="2033" d="M-33 1354v45h625v-45q-70 -4 -136.5 -23.5t-66.5 -52.5q0 -27 8 -51q8 -27 50 -162.5t105.5 -340.5t127.5 -407l299 811q0 129 -94 187q-23 14 -74 25.5t-84 13.5v45h637v-45q-69 -4 -133 -23.5t-64 -52.5q0 -20 9 -51q24 -75 294 -899q178 493 248 731q41 140 41 184 q0 34 -39 59t-88 37t-102 15v45h551v-45q-63 -3 -133 -41q-37 -22 -61.5 -58.5t-45.5 -91.5q-127 -336 -420 -1179h-73q-159 530 -330 1056l-387 -1056h-78q-65 213 -152 497t-144 470t-81 266q-17 62 -76 100q-62 33 -133 37z" />
<glyph unicode="X" horiz-adv-x="1560" d="M-8 0v45q86 5 145 29q86 38 168 137q55 66 110 134t132.5 167.5t124.5 157.5q-254 356 -379 518q-2 3 -11 15l-12 16t-11.5 15.5t-14 16.5t-14.5 15t-17 16.5t-18 14.5t-21.5 15t-23.5 13q-20 10 -70.5 18.5t-83.5 10.5v45h747v-45q-27 -1 -45 -2.5t-45.5 -5t-45.5 -10 t-36 -15.5t-27 -23.5t-9 -33.5q0 -21 21 -62.5t71.5 -114t83 -117t104.5 -141.5q309 366 309 435q0 28 -17 46t-51 27t-60.5 12t-67.5 5v45h581v-45q-86 -5 -145 -29q-86 -38 -168 -137q-77 -91 -334 -416q345 -474 412 -561q74 -96 143 -141q26 -18 154 -25v-45h-748v45 q27 1 45.5 2.5t46 5t46 10t37 15.5t27.5 23.5t9 33.5t-18 54.5t-57.5 93.5t-69.5 99.5t-88.5 120t-79.5 107.5q-86 -105 -123.5 -151.5t-101.5 -129t-91.5 -128.5t-27.5 -66q0 -28 17 -46t51 -27t60.5 -12t67.5 -5v-45h-581z" />
<glyph unicode="Y" horiz-adv-x="1280" d="M-66 1354v45h660v-45q-44 -2 -87 -9t-81.5 -23.5t-38.5 -39.5q0 -36 318 -602q335 527 335 575q0 32 -37.5 54.5t-83.5 32t-100 12.5v45h533v-45q-18 -1 -59.5 -15.5t-59.5 -25.5q-38 -22 -59 -42t-56 -63q-53 -65 -112.5 -158t-96 -157t-116.5 -209 q-27 -50 -44.5 -114.5t-17.5 -114.5v-273q0 -75 64 -102q19 -8 80 -21t88 -14v-45h-680v45q32 2 90.5 10t77.5 15q63 23 63 102v356q0 50 -53 154q-143 279 -271 498q-57 99 -124 139q-58 31 -132 35z" />
<glyph unicode="Z" horiz-adv-x="1282" d="M8 0v25l961 1318h-383q-115 0 -166 -10q-76 -16 -159.5 -117.5t-119.5 -193.5h-49l43 377h1104v-25l-960 -1319h428q244 0 301 54q62 58 121 148.5t88 162.5h49l-47 -420h-1211z" />
<glyph unicode="[" horiz-adv-x="1269" d="M150 -326v1815l47 -16q404 -91 692 -91q54 0 91.5 5.5t56.5 12.5t28.5 21t10.5 22t1 25v5q0 39 -33 86l43 16q20 -14 40 -50.5t20 -72.5q0 -98 -89 -165.5t-224 -67.5q-42 0 -83 4.5t-71 8.5t-73 18t-63.5 20.5t-70 29.5t-65 30t-76.5 38t-78 39v-1651q21 10 78.5 39 t75.5 38t65.5 31t69.5 29t64 20.5t72.5 18t71.5 9t83 4.5q135 0 224 -68t89 -166q0 -59 -66 -125l-45 17q14 12 27.5 38t13.5 50q0 12 -0.5 16t-4.5 18t-15.5 21t-31 16.5t-54.5 14t-82 4.5q-289 0 -692 -90z" />
<glyph unicode="\" horiz-adv-x="860" d="M76 1513l96 27l639 -1948l-94 -26z" />
<glyph unicode="]" horiz-adv-x="1198" d="M117 -289q0 98 84 166t211 68q46 0 85.5 -3.5t83 -15.5t69 -19t75.5 -31t68 -33t82 -43t83 -44v1651q-21 -11 -73.5 -39t-71.5 -37.5l-62 -31t-65 -29t-60.5 -20.5t-67.5 -18t-67.5 -9t-78.5 -4q-128 0 -211.5 67.5t-83.5 165.5q0 36 18.5 72t36.5 51l41 -16 q-31 -45 -31 -86q0 -38 11 -53q31 -38 167 -38q273 0 652 91l45 16v-1815l-45 17q-378 90 -652 90q-38 0 -68 -4t-48.5 -9t-31.5 -15t-18.5 -15.5t-8.5 -18t-3 -15v-13.5q0 -24 12.5 -50t26.5 -38l-43 -17q-61 61 -61 125z" />
<glyph unicode="^" horiz-adv-x="1808" d="M121 444q0 52 13 95t32 73t51.5 58t59.5 45t67 39q-67 46 -106 106t-39 156q0 101 93 192.5t220 91.5q139 0 232.5 -71.5t123.5 -188.5l-34 -16q-55 88 -109 126t-135 38q-102 0 -168 -69t-66 -175q0 -46 1 -66.5t12 -51t34 -48.5q4 1 18.5 6.5t19.5 7t18 6t19 6t18 5 t19.5 4.5t17.5 3t19.5 2.5t18.5 0.5q62 0 98 -25.5t36 -64.5q0 -35 -24 -58.5t-69 -23.5q-44 0 -88.5 14.5t-68.5 27.5t-68 40q-15 -6 -30 -15.5t-38.5 -30t-38 -56.5t-14.5 -82q0 -63 28 -123.5t84.5 -113.5t135 -93t186 -63t230.5 -23q111 0 207.5 28t166 76t119.5 111.5 t74.5 135.5t24.5 147q0 88 -25.5 154.5t-69 104.5t-96.5 56.5t-114 18.5q-92 0 -158 -50.5t-66 -136.5q0 -93 44.5 -137.5t117.5 -44.5q22 0 39.5 4.5t26 9t30.5 17.5q-4 2 -21 8.5t-22.5 9t-19.5 9t-19.5 11.5t-15 13.5t-13 17t-7 20t-3.5 25.5q0 52 30.5 75.5t66.5 23.5 q55 0 95 -28t40 -97q0 -64 -50 -117t-132 -53q-101 0 -183 70t-82 188q0 63 23.5 113.5t59.5 81t84.5 50.5t94.5 27.5t93 7.5q27 0 113.5 -5t109.5 -5q80 0 130 51t50 109q0 157 -149 157q-68 0 -68 -43q5 -6 27 -16t38.5 -27t16.5 -45q0 -46 -26 -68t-66 -22 q-48 0 -82.5 31t-34.5 92q0 55 52 98.5t137 43.5q95 0 160 -58.5t65 -157.5q0 -123 -90.5 -192.5t-249.5 -69.5q62 -27 101.5 -62t66 -104t26.5 -170q0 -66 -19.5 -136.5t-59.5 -145t-108.5 -140.5t-158.5 -118t-218 -82.5t-279 -30.5q-173 0 -318.5 63.5t-230 174 t-84.5 243.5z" />
<glyph unicode="_" horiz-adv-x="1228" d="M-10 -225h1249v-92h-1249v92z" />
<glyph unicode="`" horiz-adv-x="1024" d="M328 1419q0 30 24 54t58 24q40 0 68.5 -19t56.5 -69q95 -161 198 -311l-28 -25q-94 75 -189.5 146.5t-114.5 87.5q-42 33 -57.5 55t-15.5 57z" />
<glyph unicode="a" horiz-adv-x="1003" d="M76 193q0 60 16 105.5t47 75.5t62 48t75 35q21 8 157.5 54t187.5 75v114q0 18 -2 36.5t-12 51.5t-27 57.5t-52.5 43t-83.5 18.5q-11 0 -22 -1.5t-19.5 -3.5t-17 -6t-14 -6.5t-12.5 -8.5l-10.5 -9t-9.5 -9.5t-7.5 -8.5t-6.5 -8.5t-6 -7.5q0 -14 9.5 -55.5t9.5 -65.5 q0 -34 -33 -61t-86 -27q-47 0 -69.5 30.5t-22.5 75.5q0 59 50 110t126 79t154 28q48 0 84 -2.5t74.5 -10t65.5 -21t53 -36t41.5 -54.5t24.5 -77t9 -102q0 -104 -5 -271.5t-5 -187.5q0 -32 25.5 -68t70.5 -36q16 0 29 5.5t21 18.5t13 25t8.5 34t5 35.5t3.5 39.5h45 q-9 -138 -63.5 -201t-153.5 -63q-71 0 -113 32.5t-67 104.5h-7q-57 -67 -135 -104.5t-168 -37.5q-106 0 -171.5 60t-65.5 158zM274 223q0 -164 140 -164q72 0 113.5 26.5t86.5 82.5l9 358q-50 -15 -84.5 -27t-74 -28.5t-65.5 -33t-51.5 -38.5t-40.5 -47.5t-24 -58t-9 -70.5z " />
<glyph unicode="b" horiz-adv-x="1128" d="M-23 1466v39l363 23l14 -15v-684l6 -2q45 48 117.5 86.5t159.5 38.5q181 0 303.5 -136t122.5 -357q0 -103 -39 -194.5t-103 -155.5t-148.5 -101t-174.5 -37t-176.5 32t-147.5 71l-75 -121l-39 8q8 109 8 379v975q0 35 -15.5 68.5t-39.5 48.5q-18 11 -62 21.5t-74 12.5z M354 201q10 -29 26.5 -57.5t43.5 -60t68 -50.5t90 -19q120 0 196 118.5t76 324.5q0 80 -16 151t-49 130.5t-90 94.5t-132 35q-130 0 -213 -96v-571z" />
<glyph unicode="c" horiz-adv-x="890" d="M66 467q0 95 32 182.5t89 154.5t144 107.5t189 40.5q151 0 234.5 -68.5t83.5 -168.5q0 -53 -27.5 -84t-79.5 -31q-41 0 -78 24.5t-37 77.5q0 49 13.5 81t13.5 46q-7 42 -36.5 58t-86.5 16q-48 0 -90.5 -22.5t-78.5 -69.5t-57.5 -131t-21.5 -195q0 -184 77.5 -301.5 t209.5 -117.5q105 0 171 44t120 138l39 -29q-60 -107 -161 -175.5t-218 -68.5q-215 0 -329.5 135.5t-114.5 356.5z" />
<glyph unicode="d" horiz-adv-x="1157" d="M66 475q0 102 39 192.5t103.5 152t149 97t174.5 35.5q23 0 46.5 -2t43 -5t39.5 -8t34 -9t30 -9.5t24 -8.5t19 -7.5t12 -5.5v406q-8 87 -53 118q-24 17 -78.5 30.5t-101.5 16.5v37l405 23l15 -15v-1329q6 -67 53 -100q35 -22 121 -27v-39l-344 -22l-15 14v88l-8 2 q-47 -49 -116.5 -88t-155.5 -39q-185 0 -310.5 138.5t-125.5 363.5zM274 453q0 -107 30 -195t99 -146.5t168 -58.5q67 0 114.5 27t94.5 78v579q-22 66 -79 118t-152 52q-120 0 -197.5 -123.5t-77.5 -330.5z" />
<glyph unicode="e" horiz-adv-x="933" d="M66 471q0 93 29.5 179t83 153.5t136 108t181.5 40.5q102 0 178 -31.5t119.5 -87t64.5 -124t21 -150.5v-18h-611v-23q0 -102 17 -182.5t53 -142t95.5 -94.5t139.5 -33q59 0 101 10t75 35t56.5 54.5t56.5 82.5l37 -25q-56 -113 -156 -180.5t-225 -67.5q-113 0 -200.5 39 t-142 108t-82 157.5t-27.5 191.5zM268 586l412 4q0 315 -186 315q-97 0 -159.5 -87.5t-66.5 -231.5z" />
<glyph unicode="f" horiz-adv-x="651" d="M4 836v86h209v63q0 273 139 420q117 125 301 125q108 0 162.5 -53t54.5 -127q0 -35 -30.5 -71t-79.5 -36q-44 0 -81.5 22.5t-37.5 69.5q0 14 6 49.5t6 59.5q-12 39 -49 39q-98 0 -147 -102t-56 -334q0 -15 -1 -61t-1 -64h258v-86h-258v-678q0 -71 56 -92q53 -21 133 -25 v-41h-520v41q49 3 90 14q55 17 55 92v689h-209z" />
<glyph unicode="g" horiz-adv-x="1040" d="M37 -213q0 91 83.5 152t239.5 65v14q-32 9 -54 16.5t-55 24t-54 34.5t-36.5 46.5t-15.5 61.5t14.5 59.5t47.5 47.5t51 29.5t58 24.5q8 3 12 5v12q-110 44 -171 113.5t-61 158.5q0 137 105 219t262 82q62 0 125.5 -15t105 -30.5t49.5 -15.5q58 36 100 48.5t107 12.5 q38 0 67.5 -29t29.5 -69q0 -45 -23 -72.5t-63 -27.5q-49 0 -69 32t-20 99q-48 0 -75 -8t-52 -27v-14q36 -39 57 -93.5t21 -101.5q0 -127 -106 -209t-240 -82h-119q-71 -35 -71 -88q0 -33 15 -53.5t50.5 -30t57.5 -11.5t74 -4q15 -1 22 -1q35 -1 127 -6.5t102 -5.5 q100 -5 181 -81.5t81 -197.5q0 -149 -130.5 -241.5t-383.5 -92.5q-235 0 -340.5 64t-105.5 186zM211 -225q0 -72 75.5 -128.5t231.5 -56.5q151 0 233.5 61t82.5 179q0 30 -5.5 52.5t-30 49.5t-69.5 41q-113 15 -317 15q-109 -22 -155 -70t-46 -143zM289 653q0 -110 47 -183 t123 -73q86 0 130 72t44 178q0 112 -43 186t-133 74q-168 0 -168 -254z" />
<glyph unicode="h" horiz-adv-x="1177" d="M0 1466v39l365 23l14 -15v-729h4q75 73 107 96q99 72 229 72q138 0 206 -85.5t68 -237.5v-473q0 -70 54 -93q48 -20 90 -22v-41h-484v41q58 3 97 14q55 17 55 92v494q0 101 -50 160t-120 59q-69 0 -127 -27.5t-86.5 -57t-42.5 -58.5v-559q0 -68 55 -92q50 -23 96 -25v-41 h-483v41q49 3 90 14q56 17 56 92v1168q-3 35 -18 69t-38 50q-17 11 -61.5 20.5t-75.5 11.5z" />
<glyph unicode="i" horiz-adv-x="585" d="M37 877v38l348 23l14 -14v-764q0 -70 56 -94q52 -22 90 -25v-41h-477v41q49 3 90 14q55 17 55 92v588q-6 69 -55 103q-20 13 -57 25.5t-64 13.5zM164 1339q0 53 37 91t88 38q56 0 92.5 -35t36.5 -85q0 -55 -37 -94.5t-92 -39.5q-51 0 -88 37t-37 88z" />
<glyph unicode="j" horiz-adv-x="595" d="M-184 -309q0 39 32.5 73.5t81.5 34.5q47 0 82 -25t35 -75q0 -20 -9 -56.5t-9 -52.5q18 -6 43 -6q92 0 128 99.5t36 339.5v704q-7 75 -56 109q-18 11 -78.5 26t-89.5 17v36l396 23l14 -14v-840q0 -286 -129 -420q-64 -67 -126 -97t-140 -30q-99 0 -155 43t-56 111z M182 1339q0 53 37 91t88 38q56 0 92.5 -35t36.5 -85q0 -55 -37 -94.5t-92 -39.5q-51 0 -88 37t-37 88z" />
<glyph unicode="k" horiz-adv-x="1093" d="M0 1466v39l365 23l14 -15v-1052q191 178 326 323q26 26 26 45q0 42 -127 56v41h412v-39q-78 -22 -146.5 -56t-105.5 -67q-96 -82 -182 -168q38 -18 72 -41t60 -45t53 -56t44 -57.5t41.5 -66t36.5 -66t37 -73.5t37 -72q19 -40 75 -62q45 -18 80 -18v-39h-325 q-19 63 -53 137t-77.5 144.5t-96 117.5t-99.5 47q-54 0 -88 -30v-258q0 -71 55 -92q59 -23 96 -25v-41h-483v41q49 3 90 14q56 17 56 92v1166q-7 85 -56 119q-20 14 -62 23t-75 11z" />
<glyph unicode="l" horiz-adv-x="571" d="M-4 1466v39l371 23l14 -15v-1353q0 -70 55 -94q51 -23 90 -25v-41h-477v41q49 3 90 14q56 17 56 92v1162q-7 82 -56 116q-19 12 -67 25.5t-76 15.5z" />
<glyph unicode="m" horiz-adv-x="1789" d="M51 877v38l330 23l14 -14v-142h6q5 5 29.5 29t32 31t31 27.5t37 27.5t39 21t47.5 19t52 10t62 5q93 0 160.5 -47t103.5 -129q6 5 31 29.5t33.5 32.5t33 28.5t38.5 28.5t40.5 22t48.5 19.5t52.5 10.5t62.5 5q137 0 204 -90t67 -244v-460q0 -72 53 -95q47 -19 96 -22v-41 h-481v41q46 3 88 14q55 17 55 92v496q0 101 -48 159t-118 58q-53 0 -98 -15t-75 -40t-47.5 -45t-29.5 -41v-561q0 -72 54 -95q48 -20 90 -22v-41h-471v41q41 2 84 14q55 17 55 92v496q0 101 -48 159t-118 58q-53 0 -98 -15.5t-75 -40.5t-47.5 -45.5t-29.5 -41.5v-557 q0 -70 56 -94q50 -23 92 -25v-41h-479v41q49 3 90 14q55 17 55 92v592q-6 67 -55 101q-53 34 -105 37z" />
<glyph unicode="n" horiz-adv-x="1196" d="M55 877v38l328 23l14 -14v-140h4q5 5 23.5 23t24.5 24t24.5 22.5t28 23l28.5 19.5t33 19t35 14.5t40.5 12.5t44 7t50.5 3q139 0 209 -86t70 -237v-473q0 -70 53 -93q48 -20 90 -22v-41h-483v41q56 3 96 14q55 17 55 92v494q0 101 -50 160t-120 59q-69 0 -127 -27.5 t-86.5 -57t-42.5 -58.5v-559q0 -68 56 -92q49 -22 96 -25v-41h-483v41q49 3 90 14q55 17 55 92v588q-7 76 -55 109q-47 30 -101 33z" />
<glyph unicode="o" horiz-adv-x="1071" d="M63 459q0 219 132 356t346 137q211 0 339 -135.5t128 -343.5q0 -138 -55 -250.5t-166 -182t-261 -69.5q-124 0 -228.5 58t-169.5 171t-65 259zM270 475q0 -95 15.5 -175t46.5 -144.5t84 -101t123 -36.5q88 0 148.5 63t87 162.5t26.5 227.5q0 86 -13.5 159.5t-42.5 137 t-81.5 100.5t-124.5 37q-76 0 -131 -38.5t-84 -104.5t-41.5 -136.5t-12.5 -150.5z" />
<glyph unicode="p" horiz-adv-x="1153" d="M27 -422q54 3 112 19q54 17 54 96v1046q-7 70 -54 103q-19 12 -52 23t-60 12v38l335 23l15 -12v-105l8 -2q47 51 119 92t158 41q181 0 303 -138t122 -359q0 -136 -65.5 -247.5t-171.5 -172t-227 -60.5q-150 0 -236 64h-8v-334q0 -74 57 -96q24 -9 69.5 -19.5t72.5 -11.5 v-41h-551v41zM379 182q22 -63 79 -113.5t148 -50.5q120 0 196.5 117t76.5 322q0 80 -16 151t-49 130.5t-90 94.5t-132 35q-125 0 -213 -102v-584z" />
<glyph unicode="q" horiz-adv-x="1128" d="M66 475q0 136 67.5 247t175 170.5t228.5 59.5q39 0 77.5 -6t64.5 -13t58 -20.5t44.5 -20t38 -21t26.5 -15.5l100 125l37 -8q-16 -328 -16 -359v-905q0 -76 55 -100q57 -24 121 -31v-41h-533v41q57 3 115 19q55 16 55 96v399l-6 2q-44 -46 -115 -82.5t-157 -36.5 q-90 0 -169.5 35.5t-138.5 99.5t-93.5 158.5t-34.5 206.5zM274 453q0 -63 11 -120.5t34.5 -108.5t57.5 -88t84 -59t110 -22q69 0 117 24t92 71v587q-10 29 -27 56.5t-44 55t-68.5 44t-91.5 16.5q-119 0 -197 -124.5t-78 -331.5z" />
<glyph unicode="r" horiz-adv-x="808" d="M55 877v38l328 23l14 -14v-140h4q63 81 136 122.5t141 41.5q48 0 88.5 -37.5t40.5 -87.5q0 -56 -29 -92.5t-80 -36.5q-110 0 -110 99q0 9 7 29t7 34q-69 0 -124 -43.5t-81 -89.5v-565q0 -71 56 -92q52 -21 133 -25v-41h-520v41q49 3 90 14q55 17 55 92v588q-7 76 -55 109 q-47 30 -101 33z" />
<glyph unicode="s" horiz-adv-x="821" d="M66 307h43q9 -40 35.5 -87.5t65.5 -93t94.5 -76t113.5 -30.5q192 0 192 177q0 75 -55 116.5t-184 79.5q-279 83 -279 291q0 117 83.5 192.5t223.5 75.5q136 0 213 -53l17 55h63l15 -282h-43q-16 93 -91.5 163t-179.5 70q-87 0 -123.5 -41t-36.5 -106q0 -29 5 -51 t20.5 -40t29.5 -29.5t48.5 -26t59 -23t77.5 -25.5q138 -45 208.5 -113t70.5 -186q0 -133 -98 -213t-246 -80q-70 0 -142.5 26.5t-101.5 55.5l-21 -63h-67z" />
<glyph unicode="t" horiz-adv-x="706" d="M-2 834v88h201v317h178v-317h280v-88h-278v-547q0 -95 34.5 -144t123.5 -49q30 0 52 10.5t33.5 22t20.5 39t11.5 40.5t7.5 48h44q-13 -116 -83.5 -195t-180.5 -79q-247 0 -247 282v572h-197z" />
<glyph unicode="u" horiz-adv-x="1161" d="M29 874v39l329 25l15 -14v-652q0 -102 46.5 -158.5t115.5 -56.5q159 0 247 140v548q-7 71 -53 103q-35 22 -133 26v39l358 25l15 -14v-742q6 -65 53 -98q37 -24 98 -27v-39l-321 -22l-15 14v125h-6q-72 -72 -108 -97q-91 -63 -219 -63q-136 0 -201.5 90.5t-65.5 243.5 v430q-7 71 -53 103q-45 29 -102 32z" />
<glyph unicode="v" horiz-adv-x="956" d="M-27 883v43h455v-47q-117 -5 -117 -43q0 -6 15 -43q17 -46 53.5 -137.5t88 -220.5t83.5 -210h6q164 391 217 529q10 23 10 57q-1 27 -56 48t-95 26v41h364v-39q-34 -5 -85 -39.5t-70 -75.5q-48 -106 -240 -565q-42 -96 -80 -221h-71q-55 140 -326 796q-18 41 -61 68 t-91 33z" />
<glyph unicode="w" horiz-adv-x="1503" d="M-16 883v43h442v-47q-109 -5 -109 -43q0 -6 15 -43q22 -57 103 -260.5t118 -296.5h6q13 33 82 209t104 272q-2 5 -7 16.5t-14 30t-15 31.5q-35 77 -136 88v43h424v-45q-23 -1 -37.5 -2.5t-32.5 -5.5t-27 -12.5t-9 -20.5t14 -47q88 -235 213 -560h6q131 340 195 529 q10 30 10 53q0 32 -54 51t-91 19v41h368v-41q-47 -5 -99 -39.5t-71 -83.5q-22 -54 -221 -559q-40 -100 -78 -217h-57q-123 338 -252 663q-26 -59 -55 -132.5t-65.5 -169.5t-55.5 -144q-45 -109 -80 -217h-61q-170 431 -324 794q-17 40 -61 69t-88 34z" />
<glyph unicode="x" horiz-adv-x="964" d="M0 0v39q135 50 195 125q10 12 45.5 55.5t80 99t87.5 115.5q-6 9 -102 151.5t-140 205.5q-61 92 -152 92v43h422v-43q-33 0 -63.5 -9t-30.5 -20q0 -13 18 -45q13 -20 75 -113.5t93 -140.5q123 172 164 233q10 13 10 37q0 18 -40 35.5t-72 24.5v41h350v-39 q-70 -21 -122 -53.5t-77 -63.5q-67 -84 -188 -250q182 -266 254 -373q32 -49 61 -71t97 -33v-43h-445v43q45 3 78 14.5t33 28.5q0 9 -29 61q-11 18 -70 103.5t-100 148.5q-19 -24 -60 -75.5t-70 -90.5t-56 -81q-21 -31 -21 -48q0 -26 47 -43t80 -20v-41h-352z" />
<glyph unicode="y" horiz-adv-x="946" d="M-27 883v43h449v-47q-111 -5 -111 -43q0 -6 15 -43q20 -54 103.5 -258t123.5 -306h4q135 321 213 525q12 32 12 57q0 27 -54 48t-93 26v41h354v-39q-33 -5 -82 -39.5t-69 -75.5q-27 -62 -112 -266t-114 -273l-106 -264q-39 -88 -72.5 -154.5t-60.5 -112.5t-54.5 -77 t-48 -48.5t-47 -26.5t-46 -11t-50.5 -2t-64 12.5t-60.5 46t-27.5 80.5q0 43 33 81t84 38q42 0 74.5 -23.5t32.5 -78.5v-72q33 8 72 48t70 91.5t57.5 101.5t41.5 84l15 34q-64 162 -112 279.5t-109.5 263.5t-108.5 259q-18 41 -61 68t-91 33z" />
<glyph unicode="z" horiz-adv-x="894" d="M49 0v31l559 841h-85h-55h-36q-28 0 -73.5 -2t-74 -7t-48.5 -13q-30 -12 -55.5 -64t-41.5 -127h-53v267h752v-19l-566 -854q68 -2 172 -2q92 0 203 6q37 1 57.5 22t34.5 58q43 112 58 172h49v-309h-797z" />
<glyph unicode="{" horiz-adv-x="880" d="M63 535v108q66 5 110 12.5t89.5 25.5t71.5 45.5t42.5 73t16.5 109.5q0 43 -16.5 133t-16.5 132q0 87 20.5 149.5t56.5 101t95.5 61t125 30.5t157.5 8v-47q-35 -2 -55 -4t-52.5 -8.5t-51.5 -16t-42 -27.5t-35.5 -42t-21 -61t-8.5 -83q0 -41 9 -117t9 -117 q0 -83 -20 -146.5t-51 -102.5t-82 -67.5t-97.5 -43t-113.5 -27.5v-51q67 -13 113.5 -27.5t97.5 -43t82 -67.5t51 -102.5t20 -146.5q0 -41 -9 -116.5t-9 -116.5q0 -46 8.5 -83t21 -61t35.5 -42t42 -27.5t51.5 -16t52.5 -8.5t55 -4v-47q-92 0 -157.5 8t-125 30.5t-95.5 61 t-56.5 101t-20.5 149.5q0 42 16.5 131.5t16.5 132.5q0 53 -10.5 94t-32.5 69t-49 46.5t-67 30t-79 17.5t-92 10z" />
<glyph unicode="|" horiz-adv-x="610" d="M256 -424v1952h98v-1952h-98z" />
<glyph unicode="}" horiz-adv-x="880" d="M66 -299q35 2 55 4t52.5 8.5t51.5 16t42 27.5t35.5 42t21 61t8.5 83q0 41 -9.5 116.5t-9.5 116.5q0 70 13 125.5t39 94t56.5 66.5t76 47.5t85.5 31t95 22.5v51q-55 11 -95 22.5t-85.5 31t-76 47.5t-56.5 66.5t-39 94t-13 125.5q0 41 9.5 117t9.5 117q0 46 -8.5 83t-21 61 t-35.5 42t-42 27.5t-51.5 16t-52.5 8.5t-55 4v47q116 0 193 -13.5t139.5 -50.5t92 -107.5t29.5 -178.5q0 -42 -16.5 -132t-16.5 -133q0 -64 16.5 -109.5t42.5 -73t71.5 -45.5t89.5 -25.5t110 -12.5v-108q-53 -4 -92 -10t-79 -17.5t-67 -30t-49 -46.5t-32.5 -69t-10.5 -94 q0 -43 16.5 -132.5t16.5 -131.5q0 -108 -29.5 -178.5t-92 -107.5t-139.5 -50.5t-193 -13.5v47z" />
<glyph unicode="~" horiz-adv-x="1105" d="M113 397q27 97 107.5 176.5t174.5 79.5q66 0 132.5 -22.5t123.5 -45t99 -22.5q78 0 121.5 25.5t78.5 91.5l41 -14q-27 -97 -107.5 -176.5t-174.5 -79.5q-70 0 -136.5 22.5t-121.5 45t-97 22.5q-78 0 -121.5 -25.5t-78.5 -91.5z" />
<glyph unicode="&#xa1;" horiz-adv-x="747" d="M231 1288q0 57 40.5 96t97.5 39t97 -39t40 -96t-40 -97t-97 -40t-97.5 40t-40.5 97zM242 111q0 34 17 161t43 327t42 364h53q13 -165 38.5 -362.5t43 -326t17.5 -163.5q0 -58 -35.5 -99t-91.5 -41t-91.5 41t-35.5 99z" />
<glyph unicode="&#xa2;" horiz-adv-x="983" d="M94 621q0 128 54 237t162 178.5t249 69.5q31 0 45 -2l64 268l49 -10l-64 -264q118 -19 181 -82.5t63 -147.5q0 -53 -27 -83.5t-79 -30.5q-41 0 -78 24.5t-37 77.5q0 49 13 81t13 46q-9 55 -59 66l-186 -791q58 -39 131 -39q105 0 171 44t120 138l39 -28 q-60 -107 -161 -175.5t-218 -68.5q-53 0 -111 10l-88 -375l-47 11l88 377q-141 46 -214 170t-73 299zM297 639q0 -109 31 -199.5t86 -146.5l180 764h-35q-52 0 -97.5 -22.5t-83 -70t-59.5 -131t-22 -194.5z" />
<glyph unicode="&#xa3;" horiz-adv-x="1652" d="M-76 -20q0 88 111 143t260 55q92 0 268 -37q10 52 10 84q0 13 -6 142h-340v45h340l-2 166h-325v47h325q8 242 80 424t200 281.5t296 99.5q85 0 155 -22.5t114.5 -58t74.5 -82.5t42.5 -93.5t12.5 -92.5q0 -146 -88 -236.5t-233 -90.5q-102 0 -172 73t-70 183q0 88 35 159 l45 -8q-29 -67 -29 -143q0 -90 52 -148.5t139 -58.5q91 0 141.5 70t50.5 190q0 45 -8.5 87.5t-28 83t-48.5 70.5t-73.5 48t-99.5 18q-66 0 -118 -16.5t-97 -58t-74.5 -107t-46 -167t-16.5 -236.5q0 -97 -8 -168h327v-47h-329q-3 -30 -31 -166h344v-45h-352 q-33 -119 -111 -248q58 -19 145.5 -63.5t164.5 -71.5t161 -27q52 0 94 20t67.5 49.5t45.5 74t29.5 82t17.5 85.5l59 -8q-9 -69 -27.5 -128t-56.5 -117.5t-91 -100t-135.5 -67t-186.5 -25.5q-39 0 -76.5 6.5t-84.5 25t-69.5 28t-83.5 40.5t-73 37q-62 -74 -156 -117t-207 -43 q-130 0 -192 50.5t-62 130.5zM-16 -43q0 -49 50 -74.5t142 -25.5q100 0 184.5 33.5t137.5 89.5q-201 94 -355 94q-79 0 -119 -34t-40 -83z" />
<glyph unicode="&#xa4;" horiz-adv-x="1177" d="M98 492v83h981v-83h-981zM244 76q0 46 30.5 99t81.5 98t126 74.5t155 29.5q138 0 231 -66t93 -161q0 -127 -88.5 -213.5t-325.5 -198.5q-72 -41 -107 -68h369q34 0 66 23t50.5 48t51.5 75l33 -17l-119 -260h-639v53q113 73 162 106t110 78.5t111 90.5q92 89 121.5 152.5 t29.5 154.5q0 76 -48.5 115t-116.5 39q-107 0 -181.5 -69t-74.5 -148q0 -43 19 -63.5t75 -20.5q12 0 23 2t21.5 7.5t19 9.5t18.5 14t15.5 14.5t16 16.5t13.5 16t13 17.5t11 14.5l31 -26q-43 -67 -111 -117.5t-149 -50.5q-57 0 -97 34.5t-40 96.5zM264 1477l17 30 q87 -32 172 -32q113 0 229 59h29q-23 -113 -23 -209v-502q0 -22 12.5 -40t34.5 -25q28 -11 139 -19v-45h-544v45q130 8 143 13q22 6 35.5 24t13.5 41v582q-27 -6 -73 -6q-70 0 -185 84z" />
<glyph unicode="&#xa5;" horiz-adv-x="1185" d="M-14 1198v45h577v-45q-178 -12 -178 -55q0 -31 260 -490q273 429 273 467q0 64 -181 78v45h467v-45q-16 -2 -51.5 -13t-48.5 -20q-14 -8 -23.5 -14.5t-21 -18t-15.5 -16.5t-20.5 -25t-22.5 -28q-46 -57 -92.5 -130t-79.5 -130.5t-96 -173.5q-22 -42 -37 -86h316v-47h-328 q-6 -35 -6 -64v-84h334v-47h-334v-129q0 -33 16 -59.5t43 -38.5q21 -10 71.5 -18.5t82.5 -10.5v-45h-635v45q120 6 162 21q28 9 45.5 35.5t17.5 60.5v139h-321v47h321v148h-321v47h313q-7 30 -35 84q-87 173 -223 411q-56 96 -117 131q-43 25 -112 29z" />
<glyph unicode="&#xa7;" horiz-adv-x="1167" d="M154 694q0 60 23.5 108.5t63 80t85 50.5t94.5 25q-82 124 -82 250q0 121 96.5 212t231.5 91q59 0 107 -21t75.5 -53t42 -66t14.5 -64q0 -67 -32.5 -103.5t-90.5 -36.5q-43 0 -73.5 25t-30.5 72q0 26 13.5 44t29.5 25.5t29.5 19.5t13.5 27q0 42 -28 62t-91 20 q-83 0 -127.5 -54t-44.5 -157q0 -48 15.5 -90.5t34 -70.5t67.5 -93q34 -46 72.5 -90t92.5 -104t97 -111q88 -104 125 -173t37 -157q0 -61 -23.5 -107.5t-64.5 -75t-86 -44.5t-99 -24q90 -136 90 -271q0 -122 -95 -213.5t-228 -91.5q-61 0 -111.5 21.5t-80.5 54t-46 67 t-16 64.5q0 67 32.5 103t90.5 36q43 0 73.5 -24.5t30.5 -71.5q0 -25 -13 -42t-28 -24.5t-28 -20.5t-13 -30q0 -86 123 -86q83 0 124.5 59.5t41.5 170.5q0 70 -23 120.5t-87 133.5q-42 56 -130 149t-139 154q-84 100 -119.5 168t-35.5 157zM281 739q0 -40 29 -96t71 -106 q54 -66 173 -197t163 -195q162 44 162 172q0 87 -97 203q-56 68 -175 206t-163 196q-77 -14 -120 -53.5t-43 -129.5z" />
<glyph unicode="&#xa8;" horiz-adv-x="1024" d="M170 1321q0 49 35 85t82 36q53 0 88 -33.5t35 -79.5q0 -52 -35.5 -88.5t-87.5 -36.5q-47 0 -82 35t-35 82zM614 1321q0 50 35 85.5t84 35.5q51 0 86 -34t35 -79q0 -51 -35 -88t-86 -37q-49 0 -84 34.5t-35 82.5z" />
<glyph unicode="&#xa9;" horiz-adv-x="1929" d="M80 514q0 178 70.5 341t189.5 281t283.5 188.5t343.5 70.5q178 0 341 -70.5t281.5 -188.5t189 -281t70.5 -341q0 -179 -70.5 -343t-189 -282.5t-281.5 -189t-341 -70.5q-240 0 -444 119t-323.5 323t-119.5 443zM158 514q0 -167 63.5 -318t171.5 -260t258 -173t316 -64 q165 0 314.5 64t257 173t170.5 260t63 318q0 165 -63 314.5t-170.5 258t-257 172.5t-314.5 64q-166 0 -316 -64t-258 -172.5t-171.5 -258t-63.5 -314.5zM489 506q0 214 146.5 356t372.5 142q56 0 121 -18.5t102 -45.5l45 78h55l8 -371h-47q-18 52 -34 89.5t-43 79t-59 67 t-80 42.5t-107 17q-116 0 -197.5 -108.5t-81.5 -317.5q0 -180 94 -289.5t236 -109.5q117 0 185.5 56t119.5 161l45 -21q-128 -286 -391 -286q-222 0 -356 129.5t-134 349.5z" />
<glyph unicode="&#xaa;" horiz-adv-x="671" d="M113 868q0 61 29 93.5t77 50.5q27 11 90.5 31t87.5 32v58q0 12 -2.5 25.5t-10.5 33.5t-27.5 32.5t-47.5 12.5q-9 0 -17 -2t-13 -4t-10.5 -6t-8 -6.5l-7 -7l-5.5 -5.5q0 -8 5 -29.5t5 -33.5q0 -20 -18.5 -34.5t-46.5 -14.5q-27 0 -40.5 16.5t-13.5 42.5q0 48 55 82.5 t121 34.5q36 0 61 -3t51 -12.5t41.5 -26.5t25.5 -47.5t10 -72.5q0 -54 -4 -142t-4 -98q0 -14 12.5 -31.5t34.5 -17.5q15 0 24 13t11.5 27.5t3.5 39.5h28q-6 -77 -34 -111t-82 -34q-38 0 -60.5 18t-34.5 57h2q-67 -77 -159 -77q-58 0 -93.5 31.5t-35.5 84.5zM121 545v53h463 v-53h-463zM223 887q0 -40 18.5 -61t51.5 -21q36 0 56.5 13t41.5 40l6 180q-47 -16 -71 -26.5t-52 -28.5t-39.5 -41t-11.5 -55z" />
<glyph unicode="&#xab;" horiz-adv-x="1146" d="M102 459q0 24 4.5 38t11.5 21.5t25 22.5q208 158 428 344l33 -27l-321 -403l321 -398l-33 -26q-393 318 -424 342q-22 17 -28.5 23t-11.5 21t-5 42zM530 459q0 24 4.5 38t11.5 21.5t25 22.5q208 158 428 344l33 -27l-321 -403l321 -398l-33 -26q-393 318 -424 342 q-22 17 -28.5 23t-11.5 21t-5 42z" />
<glyph unicode="&#xad;" horiz-adv-x="778" d="M82 434v156h614v-156h-614z" />
<glyph unicode="&#xae;" horiz-adv-x="970" d="M113 1067q0 158 107 265.5t265 107.5t265.5 -107.5t107.5 -265.5t-107.5 -265.5t-265.5 -107.5t-265 107.5t-107 265.5zM154 1067q0 -143 94.5 -241.5t236.5 -98.5t237 98.5t95 241.5t-95 241.5t-237 98.5t-236.5 -98.5t-94.5 -241.5zM295 872v21q17 0 41 6q18 8 18 31 v303q0 26 -18 31q-24 8 -41 8v20h215q53 0 94 -23.5t41 -70.5q0 -74 -119 -106v-7q30 -4 58.5 -19.5t36.5 -45.5q3 -14 9.5 -45t10.5 -47q7 -27 29 -27q13 0 19.5 10.5t6.5 40.5h21q0 -45 -17.5 -65.5t-58.5 -20.5q-76 0 -88 105q-4 29 -10 48t-26 35.5t-54 16.5h-35v-141 q0 -23 18 -31q24 -6 41 -6v-21h-192zM428 1096h33q100 0 100 90q0 49 -22 66.5t-62 17.5h-49v-174z" />
<glyph unicode="&#xaf;" horiz-adv-x="1024" d="M174 1221v127h676v-127h-676z" />
<glyph unicode="&#xb0;" horiz-adv-x="839" d="M117 1145q0 130 92.5 219.5t206.5 89.5q127 0 217 -79t90 -228q0 -123 -93.5 -211t-213.5 -88q-126 0 -212.5 78.5t-86.5 218.5zM238 1153q0 -111 49 -177.5t135 -66.5q74 0 126 63t52 171q0 118 -48.5 183t-133.5 65q-83 0 -131.5 -66t-48.5 -172z" />
<glyph unicode="&#xb1;" horiz-adv-x="1785" d="M4 842v80h209v53q0 242 147 409q48 53 133.5 92.5t172.5 39.5q212 0 272 -148q7 12 30 34.5t63.5 53t103 52.5t129.5 22q119 0 215 -47l104 45l14 -15v-1353q0 -70 56 -94q51 -23 90 -25v-41h-475v41q46 3 88 14q57 18 57 92v1067q-65 18 -65 74q0 23 8 42.5t17 29.5 t18 18.5t10 10.5q-2 15 -8 28.5t-21 30.5t-46 27t-75 10q-49 0 -93 -25t-80.5 -75t-58.5 -137.5t-22 -200.5v-125h252v-82h-252v-682q0 -71 56 -92q59 -23 102 -25v-41h-489v41q49 3 90 14q55 17 55 92v699h-412v-688q0 -71 56 -92q60 -23 92 -25v-41h-479v41q49 3 90 14 q55 17 55 92v695h-209zM397 922h418v63q0 109 31 217q-44 1 -69 22.5t-25 55.5q0 30 4.5 49.5t13 33.5t8.5 15q-2 16 -6 27t-16 28t-38.5 26t-66.5 9q-47 0 -90 -23t-81 -71.5t-60.5 -135.5t-22.5 -202v-114z" />
<glyph unicode="&#xb4;" horiz-adv-x="1024" d="M291 1098q103 150 198 311q28 50 56.5 69t68.5 19q34 0 58 -24t24 -54q0 -35 -15.5 -57t-57.5 -55q-19 -16 -114.5 -87.5t-189.5 -146.5z" />
<glyph unicode="&#xb5;" horiz-adv-x="1130" d="M-23 -393q0 67 60.5 295t116.5 377q84 311 100 358q39 106 117 106q41 0 61.5 -20.5t20.5 -46.5q0 -22 -22.5 -62t-53 -84t-67.5 -117t-60 -149v-51q0 -32 16.5 -57t46.5 -25q49 0 111 35.5t113.5 85t87.5 90t49 61.5q14 21 31 62.5t37 95t30 76.5q32 66 48 83 q30 34 77 34q50 0 68 -20.5t18 -57.5q0 -24 -26 -60.5t-78 -111.5t-95 -162q-20 -61 -20 -133q0 -86 61 -86q48 0 123.5 47t134.5 131l33 -14q-27 -111 -106 -202t-174 -91q-36 0 -61.5 22.5t-37 56.5t-16 63t-4.5 54q0 19 8 105h-8q-84 -126 -193.5 -213.5t-185.5 -87.5 q-73 0 -111.5 51.5t-48.5 128.5h-4q-76 -220 -92 -407q9 -52 36 -101t27 -76q0 -30 -19 -59t-54 -29q-95 0 -95 105z" />
<glyph unicode="&#xb6;" horiz-adv-x="1267" d="M119 1044q0 49 12 96.5t40.5 95t71 83t109 58t148.5 22.5h735v-45h-291v-1610h-57v1610h-197v-1610h-57v956h-62q-106 0 -187 20.5t-130 53t-80.5 79t-43 92.5t-11.5 99z" />
<glyph unicode="&#xb7;" horiz-adv-x="593" d="M160 557q0 57 41 98t98 41t98 -41t41 -98t-41 -97t-98 -40t-98 40t-41 97z" />
<glyph unicode="&#xb8;" horiz-adv-x="1024" d="M289 -412q132 0 171 7q107 18 107 100q0 26 -14.5 42.5t-44 23.5t-53 8.5t-62.5 1.5v245h58v-129q264 0 264 -155q0 -43 -16 -76t-48 -54t-69 -35t-89.5 -20.5t-98 -9t-105.5 -2.5v53z" />
<glyph unicode="&#xba;" horiz-adv-x="708" d="M102 1006q0 118 69.5 191t184.5 73q113 0 181.5 -72.5t68.5 -183.5q0 -115 -68.5 -192t-187.5 -77q-103 0 -175.5 72t-72.5 189zM123 545v53h463v-53h-463zM221 1014q0 -100 33 -165t102 -65q65 0 97 64t32 164q0 59 -11 106t-41.5 80t-76.5 33q-38 0 -65.5 -19.5 t-42 -52.5t-21 -69t-6.5 -76z" />
<glyph unicode="&#xbb;" horiz-adv-x="1146" d="M115 57l321 398l-321 403l32 27q220 -186 428 -344q18 -15 25 -22.5t11.5 -21.5t4.5 -38q0 -27 -5 -42t-11.5 -21t-28.5 -23q-31 -24 -424 -342zM543 57l321 398l-321 403l32 27q212 -179 429 -344q25 -20 32.5 -33.5t7.5 -48.5q0 -27 -5 -42t-11.5 -21t-28.5 -23 q-31 -24 -424 -342z" />
<glyph unicode="&#xbd;" horiz-adv-x="1177" d="M98 492v83h981v-83h-981zM244 76q0 46 30.5 99t81.5 98t126 74.5t155 29.5q138 0 231 -66t93 -161q0 -127 -88.5 -213.5t-325.5 -198.5q-72 -41 -107 -68h369q34 0 66 23t50.5 48t51.5 75l33 -17l-119 -260h-639v53q113 73 162 106t110 78.5t111 90.5q92 89 121.5 152.5 t29.5 154.5q0 76 -48.5 115t-116.5 39q-107 0 -181.5 -69t-74.5 -148q0 -43 19 -63.5t75 -20.5q12 0 23 2t21.5 7.5t19 9.5t18.5 14t15.5 14.5t16 16.5t13.5 16t13 17.5t11 14.5l31 -26q-43 -67 -111 -117.5t-149 -50.5q-57 0 -97 34.5t-40 96.5zM264 1477l17 30 q87 -32 172 -32q113 0 229 59h29q-23 -113 -23 -209v-502q0 -22 12.5 -40t34.5 -25q28 -11 139 -19v-45h-544v45q130 8 143 13q22 6 35.5 24t13.5 41v582q-27 -6 -73 -6q-70 0 -185 84z" />
<glyph unicode="&#xbf;" horiz-adv-x="987" d="M102 410q0 170 127 286.5t326 141.5l8 196h60v-352q-54 -8 -95.5 -18t-87.5 -31.5t-76 -51.5t-49.5 -78t-19.5 -110q0 -338 246 -338q102 0 137 43q-2 14 -7 29t-8.5 35.5t-3.5 56.5q0 49 39.5 78t75.5 29q52 0 78.5 -32.5t26.5 -84.5q0 -82 -94.5 -145.5t-247.5 -63.5 q-209 0 -322 114t-113 296zM451 1288q0 57 40 96t97 39t97 -39t40 -96t-40 -97t-97 -40t-97 40t-40 97z" />
<glyph unicode="&#xc0;" d="M-49 0v45q30 2 73 13t70 26q65 38 117 160q45 108 471 1177h78q115 -291 284.5 -726t200.5 -513q13 -34 31 -57t53 -43q61 -33 135 -37v-45h-645v45q70 4 138.5 25t68.5 55q0 26 -8 47l-127 324h-504q-53 -128 -82 -226q-22 -71 -22 -114q0 -26 25.5 -47.5t63.5 -34.5 t75 -20t67 -9v-45h-563zM408 1833q0 30 23.5 54t57.5 24q40 0 68.5 -19t56.5 -69q93 -157 199 -312l-29 -24q-94 75 -189 146t-114 87q-41 33 -57 55t-16 58zM414 563h450l-227 572z" />
<glyph unicode="&#xc1;" d="M-49 0v45q30 2 73 13t70 26q65 38 117 160q45 108 471 1177h78q115 -291 284.5 -726t200.5 -513q13 -34 31 -57t53 -43q61 -33 135 -37v-45h-645v45q70 4 138.5 25t68.5 55q0 26 -8 47l-127 324h-504q-53 -128 -82 -226q-22 -71 -22 -114q0 -26 25.5 -47.5t63.5 -34.5 t75 -20t67 -9v-45h-563zM414 563h450l-227 572zM618 1489q110 161 199 311q28 50 56.5 69t68.5 19q34 0 58 -24t24 -54q0 -35 -16 -57t-58 -55q-20 -16 -114.5 -87.5t-188.5 -146.5z" />
<glyph unicode="&#xc2;" d="M-49 0v45q30 2 73 13t70 26q65 38 117 160q45 108 471 1177h78q115 -291 284.5 -726t200.5 -513q13 -34 31 -57t53 -43q61 -33 135 -37v-45h-645v45q70 4 138.5 25t68.5 55q0 26 -8 47l-127 324h-504q-53 -128 -82 -226q-22 -71 -22 -114q0 -26 25.5 -47.5t63.5 -34.5 t75 -20t67 -9v-45h-563zM397 1436q128 185 234 350q21 31 34.5 38t55.5 7q30 0 44 -4t20 -10t20 -27q21 -31 98 -148.5t137 -205.5l-30 -25l-293 275l-289 -275zM414 563h450l-227 572z" />
<glyph unicode="&#xc3;" d="M-49 0v45q30 2 73 13t70 26q65 38 117 160q45 108 471 1177h78q115 -291 284.5 -726t200.5 -513q13 -34 31 -57t53 -43q61 -33 135 -37v-45h-645v45q70 4 138.5 25t68.5 55q0 26 -8 47l-127 324h-504q-53 -128 -82 -226q-22 -71 -22 -114q0 -26 25.5 -47.5t63.5 -34.5 t75 -20t67 -9v-45h-563zM348 1495q14 40 36.5 80.5t54.5 82t75.5 67.5t89.5 26q53 0 102.5 -17.5t79.5 -38t67.5 -38t70.5 -17.5q19 0 34.5 2t28 3.5t24 8.5t18.5 9.5t16.5 14t13 14.5t12 18.5t10.5 19.5t11.5 23.5t11.5 24.5l41 -15q-11 -39 -34.5 -81.5t-56.5 -82.5 t-78.5 -66t-92.5 -26q-56 0 -105.5 17.5t-79 38t-68.5 38t-77 17.5q-32 0 -54 -7.5t-42.5 -29t-32.5 -40.5t-37 -62zM414 563h450l-227 572z" />
<glyph unicode="&#xc4;" d="M-49 0v45q30 2 73 13t70 26q65 38 117 160q45 108 471 1177h78q115 -291 284.5 -726t200.5 -513q13 -34 31 -57t53 -43q61 -33 135 -37v-45h-645v45q70 4 138.5 25t68.5 55q0 26 -8 47l-127 324h-504q-53 -128 -82 -226q-22 -71 -22 -114q0 -26 25.5 -47.5t63.5 -34.5 t75 -20t67 -9v-45h-563zM377 1651q0 49 35 85t82 36q53 0 87.5 -33.5t34.5 -79.5q0 -52 -35 -88.5t-87 -36.5q-47 0 -82 35t-35 82zM414 563h450l-227 572zM821 1651q0 50 35 85.5t84 35.5q51 0 86 -34t35 -79q0 -51 -35 -88t-86 -37q-49 0 -84 34.5t-35 82.5z" />
<glyph unicode="&#xc5;" d="M-49 0v45q30 2 73 13t70 26q65 38 117 160q45 108 471 1177h78q115 -291 284.5 -726t200.5 -513q13 -34 31 -57t53 -43q61 -33 135 -37v-45h-645v45q70 4 138.5 25t68.5 55q0 26 -8 47l-127 324h-504q-53 -128 -82 -226q-22 -71 -22 -114q0 -26 25.5 -47.5t63.5 -34.5 t75 -20t67 -9v-45h-563zM414 563h450l-227 572zM508 1679q0 88 62.5 144.5t152.5 56.5q92 0 153.5 -56t61.5 -145q0 -88 -60.5 -144t-154.5 -56q-96 0 -155.5 55t-59.5 145zM600 1679q0 -69 33 -111t90 -42q58 0 90.5 41.5t32.5 111.5q0 68 -33 111t-90 43t-90 -41.5 t-33 -112.5z" />
<glyph unicode="&#xc6;" horiz-adv-x="1925" d="M-123 0v45q31 2 76.5 13.5t75.5 25.5q70 39 143 160q90 152 183.5 314.5t246 431t193.5 339.5q-58 20 -170 25v45h1140v-318h-55q-19 74 -88 160t-131 94q-65 8 -170 8h-211v-589h147q41 0 71 5.5t50.5 17.5t28.5 18.5t23 21.5q21 21 39.5 81.5t23.5 107.5h55v-572h-55 q-3 45 -24 112t-39 87q-18 19 -32.5 30t-51.5 22t-89 11h-147v-450q0 -53 6 -84.5t19.5 -53.5t44 -32t69 -13.5t105.5 -3.5h29q83 0 123 1.5t85.5 12.5t67.5 33q42 44 95.5 139.5t70.5 147.5h51l-27 -393h-1181v45q31 2 86.5 10t74.5 15q64 24 64 100v391h-465 q-102 -176 -156 -291q-37 -73 -43 -114q-5 -26 16.5 -47.5t58 -34.5t71.5 -20t65 -9v-45h-563zM467 625h426v696h-31z" />
<glyph unicode="&#xc7;" horiz-adv-x="1337" d="M76 682q0 156 55 294t150.5 236.5t229.5 155.5t286 57q82 0 172 -33t137 -77l61 104h84l9 -506h-50q-141 453 -477 453q-81 0 -153 -40t-130.5 -118.5t-93 -210t-34.5 -299.5q0 -136 39 -253t106 -197.5t156.5 -126t189.5 -45.5q91 0 163.5 22t125 65.5t89.5 96t69 123.5 l53 -29q-34 -77 -80 -141t-113 -121.5t-160.5 -90t-205.5 -32.5h-19v-82q264 0 264 -155q0 -43 -16 -76t-48 -54t-69 -35t-89.5 -20.5t-98 -9t-105.5 -2.5v53q133 0 172 7q107 18 107 100q0 26 -14.5 42.5t-44 23.5t-53 8.5t-62.5 1.5v202q-272 23 -437 214.5t-165 494.5z " />
<glyph unicode="&#xc8;" horiz-adv-x="1363" d="M78 0v45q34 2 87.5 9.5t74.5 15.5q63 23 63 100v1047q0 37 -13.5 61.5t-49.5 38.5q-29 12 -81.5 23.5t-80.5 13.5v45h1128v-318h-55q-19 74 -88 160t-131 94q-65 8 -170 8h-242v-589h178q53 0 91.5 12.5t49.5 21.5t31 29q21 21 40 81.5t24 107.5h55v-572h-55 q-3 45 -24.5 112t-39.5 87q-18 19 -32.5 30t-51 22t-88.5 11h-178v-450q0 -53 6 -84.5t19.5 -53.5t44 -32t69 -13.5t105.5 -3.5h29q88 0 133 1.5t99 12.5t75 33q42 44 95.5 139.5t70.5 147.5h51l-27 -393h-1212zM399 1810q0 30 24 54t58 24q40 0 68.5 -19t56.5 -69 q89 -150 199 -311l-29 -25q-94 75 -188.5 146.5t-114.5 87.5q-42 33 -58 55t-16 57z" />
<glyph unicode="&#xc9;" horiz-adv-x="1363" d="M78 0v45q34 2 87.5 9.5t74.5 15.5q63 23 63 100v1047q0 37 -13.5 61.5t-49.5 38.5q-29 12 -81.5 23.5t-80.5 13.5v45h1128v-318h-55q-19 74 -88 160t-131 94q-65 8 -170 8h-242v-589h178q53 0 91.5 12.5t49.5 21.5t31 29q21 21 40 81.5t24 107.5h55v-572h-55 q-3 45 -24.5 112t-39.5 87q-18 19 -32.5 30t-51 22t-88.5 11h-178v-450q0 -53 6 -84.5t19.5 -53.5t44 -32t69 -13.5t105.5 -3.5h29q88 0 133 1.5t99 12.5t75 33q42 44 95.5 139.5t70.5 147.5h51l-27 -393h-1212zM567 1489q110 161 199 311q28 50 56.5 69t68.5 19 q34 0 58 -24t24 -54q0 -35 -16 -57t-58 -55q-20 -16 -114.5 -87.5t-188.5 -146.5z" />
<glyph unicode="&#xca;" horiz-adv-x="1363" d="M78 0v45q34 2 87.5 9.5t74.5 15.5q63 23 63 100v1047q0 37 -13.5 61.5t-49.5 38.5q-29 12 -81.5 23.5t-80.5 13.5v45h1128v-318h-55q-19 74 -88 160t-131 94q-65 8 -170 8h-242v-589h178q53 0 91.5 12.5t49.5 21.5t31 29q21 21 40 81.5t24 107.5h55v-572h-55 q-3 45 -24.5 112t-39.5 87q-18 19 -32.5 30t-51 22t-88.5 11h-178v-450q0 -53 6 -84.5t19.5 -53.5t44 -32t69 -13.5t105.5 -3.5h29q88 0 133 1.5t99 12.5t75 33q42 44 95.5 139.5t70.5 147.5h51l-27 -393h-1212zM375 1497q112 163 233 350q21 31 34.5 38t55.5 7q30 0 44 -4 t20 -10t20 -27q22 -31 99 -148.5t137 -205.5l-31 -24l-293 274l-288 -274z" />
<glyph unicode="&#xcb;" horiz-adv-x="1363" d="M78 0v45q34 2 87.5 9.5t74.5 15.5q63 23 63 100v1047q0 37 -13.5 61.5t-49.5 38.5q-29 12 -81.5 23.5t-80.5 13.5v45h1128v-318h-55q-19 74 -88 160t-131 94q-65 8 -170 8h-242v-589h178q53 0 91.5 12.5t49.5 21.5t31 29q21 21 40 81.5t24 107.5h55v-572h-55 q-3 45 -24.5 112t-39.5 87q-18 19 -32.5 30t-51 22t-88.5 11h-178v-450q0 -53 6 -84.5t19.5 -53.5t44 -32t69 -13.5t105.5 -3.5h29q88 0 133 1.5t99 12.5t75 33q42 44 95.5 139.5t70.5 147.5h51l-27 -393h-1212zM350 1651q0 49 35 85t82 36q53 0 88 -33.5t35 -79.5 q0 -52 -35.5 -88.5t-87.5 -36.5q-47 0 -82 35t-35 82zM795 1651q0 50 34.5 85.5t83.5 35.5q51 0 86 -34t35 -79q0 -51 -35 -88t-86 -37q-49 0 -83.5 34.5t-34.5 82.5z" />
<glyph unicode="&#xcc;" horiz-adv-x="831" d="M94 0v45q109 6 150 21q63 23 63 98v1055q0 37 -13.5 60.5t-49.5 37.5q-89 34 -150 37v45h643v-45q-79 -4 -149 -27q-64 -20 -64 -98v-1055q0 -71 64 -98q20 -8 71 -19t78 -12v-45h-643zM113 1810q0 30 24 54t58 24q39 0 67.5 -19t56.5 -69q89 -150 199 -311l-29 -25 q-94 75 -188.5 146.5t-114.5 87.5q-42 33 -57.5 55t-15.5 57z" />
<glyph unicode="&#xcd;" horiz-adv-x="831" d="M94 0v45q109 6 150 21q63 23 63 98v1055q0 37 -13.5 60.5t-49.5 37.5q-89 34 -150 37v45h643v-45q-79 -4 -149 -27q-64 -20 -64 -98v-1055q0 -71 64 -98q20 -8 71 -19t78 -12v-45h-643zM322 1489q103 150 198 311q28 50 56.5 69t68.5 19q34 0 58 -24t24 -54 q0 -35 -16 -57t-58 -55q-20 -16 -114.5 -87.5t-188.5 -146.5z" />
<glyph unicode="&#xce;" horiz-adv-x="831" d="M94 0v45q109 6 150 21q63 23 63 98v1055q0 37 -13.5 60.5t-49.5 37.5q-89 34 -150 37v45h643v-45q-79 -4 -149 -27q-64 -20 -64 -98v-1055q0 -71 64 -98q20 -8 71 -19t78 -12v-45h-643zM94 1497q128 185 234 350q21 31 34.5 38t55.5 7q30 0 44 -4t20 -10t20 -27 q21 -31 98 -148.5t137 -205.5l-30 -24l-293 274l-289 -274z" />
<glyph unicode="&#xcf;" horiz-adv-x="831" d="M94 0v45q109 6 150 21q63 23 63 98v1055q0 37 -13.5 60.5t-49.5 37.5q-89 34 -150 37v45h643v-45q-79 -4 -149 -27q-64 -20 -64 -98v-1055q0 -71 64 -98q20 -8 71 -19t78 -12v-45h-643zM94 1651q0 49 35 85t82 36q53 0 88 -33.5t35 -79.5q0 -52 -35.5 -88.5t-87.5 -36.5 q-47 0 -82 35t-35 82zM539 1651q0 50 34.5 85.5t83.5 35.5q51 0 86 -34t35 -79q0 -51 -35 -88t-86 -37q-49 0 -83.5 34.5t-34.5 82.5z" />
<glyph unicode="&#xd0;" horiz-adv-x="1595" d="M88 0v45q31 0 81.5 7t70.5 14q63 23 63 100v528h-205v68h205v455q0 78 -63 104q-71 29 -144 33v45h660q64 0 131 -9.5t143 -33t145 -59.5t132.5 -93t110 -128t74.5 -170.5t28 -215.5q0 -139 -46 -254.5t-123.5 -195t-181.5 -134.5t-218.5 -80.5t-235.5 -25.5h-627z M520 217q10 -80 60 -119t163 -39q132 0 233.5 46.5t164.5 132t95 200t32 254.5q0 186 -70 333t-200.5 231.5t-299.5 84.5q-88 0 -178 -4v-575h285v-68h-285v-477z" />
<glyph unicode="&#xd1;" horiz-adv-x="1609" d="M10 1354v45h422l856 -1077v694q0 232 -69 276q-29 18 -101 39t-108 23v45h610v-45q-30 -2 -97.5 -19.5t-90.5 -31.5q-68 -43 -68 -275v-1042h-76l-917 1155v-750q0 -223 69 -280q24 -20 101 -42t110 -24v-45h-614v45q28 2 100.5 22.5t89.5 32.5q36 26 52 93t16 188v721 q0 46 -18 92t-48 70q-38 30 -108.5 59.5t-110.5 30.5zM438 1516q14 40 36.5 80.5t54.5 82t75.5 67.5t89.5 26q53 0 102.5 -17.5t79.5 -38t67.5 -38t70.5 -17.5q55 0 89.5 17t46.5 35t35 67l9 18l41 -14q-11 -39 -34.5 -81.5t-56.5 -82.5t-78.5 -66t-92.5 -26 q-56 0 -105.5 17t-79 38t-68.5 38t-77 17q-32 0 -54 -7.5t-42.5 -29t-32.5 -40.5t-37 -62z" />
<glyph unicode="&#xd2;" horiz-adv-x="1587" d="M78 684q0 337 198 535q210 213 519 213q301 0 520 -213q91 -91 142.5 -225.5t51.5 -284.5q0 -339 -213 -545q-213 -197 -510 -197q-284 0 -489 193q-219 206 -219 524zM326 694q0 -139 29 -258t85.5 -210t147.5 -143t207 -52q154 0 261 89.5t156.5 238t49.5 343.5 q0 104 -15.5 198t-51 180.5t-88.5 149.5t-133 100.5t-179 37.5q-219 0 -344 -178.5t-125 -495.5zM502 1810q0 30 24 54t58 24q40 0 68.5 -19t56.5 -69q95 -161 198 -311l-28 -25q-94 75 -189.5 146.5t-114.5 87.5q-42 33 -57.5 55t-15.5 57z" />
<glyph unicode="&#xd3;" horiz-adv-x="1587" d="M78 684q0 337 198 535q210 213 519 213q301 0 520 -213q91 -91 142.5 -225.5t51.5 -284.5q0 -339 -213 -545q-213 -197 -510 -197q-284 0 -489 193q-219 206 -219 524zM326 694q0 -139 29 -258t85.5 -210t147.5 -143t207 -52q154 0 261 89.5t156.5 238t49.5 343.5 q0 104 -15.5 198t-51 180.5t-88.5 149.5t-133 100.5t-179 37.5q-219 0 -344 -178.5t-125 -495.5zM649 1489q110 161 199 311q28 50 56.5 69t68.5 19q34 0 58 -24t24 -54q0 -35 -16 -57t-58 -55q-20 -16 -114.5 -87.5t-188.5 -146.5z" />
<glyph unicode="&#xd4;" horiz-adv-x="1587" d="M78 684q0 337 198 535q210 213 519 213q301 0 520 -213q91 -91 142.5 -225.5t51.5 -284.5q0 -339 -213 -545q-213 -197 -510 -197q-284 0 -489 193q-219 206 -219 524zM326 694q0 -139 29 -258t85.5 -210t147.5 -143t207 -52q154 0 261 89.5t156.5 238t49.5 343.5 q0 104 -15.5 198t-51 180.5t-88.5 149.5t-133 100.5t-179 37.5q-219 0 -344 -178.5t-125 -495.5zM463 1497q112 163 233 350q21 31 34.5 38t55.5 7q30 0 44 -4t20 -10t20 -27q22 -31 99 -148.5t137 -205.5l-31 -24l-293 274l-288 -274z" />
<glyph unicode="&#xd5;" horiz-adv-x="1587" d="M78 684q0 337 198 535q210 213 519 213q301 0 520 -213q91 -91 142.5 -225.5t51.5 -284.5q0 -339 -213 -545q-213 -197 -510 -197q-284 0 -489 193q-219 206 -219 524zM326 694q0 -139 29 -258t85.5 -210t147.5 -143t207 -52q154 0 261 89.5t156.5 238t49.5 343.5 q0 104 -15.5 198t-51 180.5t-88.5 149.5t-133 100.5t-179 37.5q-219 0 -344 -178.5t-125 -495.5zM397 1526q14 40 36.5 80.5t54.5 82t75.5 67.5t89.5 26q53 0 102.5 -17.5t79.5 -38t67.5 -38t70.5 -17.5q55 0 89.5 17t46.5 35t35 67l9 18l41 -14q-11 -39 -34.5 -81.5 t-56.5 -82.5t-78.5 -66t-92.5 -26q-56 0 -105.5 17.5t-79 38t-68.5 38t-77 17.5q-32 0 -54 -7.5t-42.5 -29.5t-32.5 -40.5t-37 -62.5z" />
<glyph unicode="&#xd6;" horiz-adv-x="1587" d="M78 684q0 337 198 535q210 213 519 213q301 0 520 -213q91 -91 142.5 -225.5t51.5 -284.5q0 -339 -213 -545q-213 -197 -510 -197q-284 0 -489 193q-219 206 -219 524zM326 694q0 -139 29 -258t85.5 -210t147.5 -143t207 -52q154 0 261 89.5t156.5 238t49.5 343.5 q0 104 -15.5 198t-51 180.5t-88.5 149.5t-133 100.5t-179 37.5q-219 0 -344 -178.5t-125 -495.5zM444 1651q0 49 35 85t82 36q53 0 88 -33.5t35 -79.5q0 -52 -35.5 -88.5t-87.5 -36.5q-47 0 -82 35t-35 82zM889 1651q0 50 35 85.5t84 35.5q51 0 85.5 -34t34.5 -79 q0 -51 -34.5 -88t-85.5 -37q-49 0 -84 34.5t-35 82.5z" />
<glyph unicode="&#xd8;" horiz-adv-x="1587" d="M78 684q0 337 198 535q210 213 519 213q261 0 458 -160l185 209l53 -41l-188 -211q90 -77 148 -221.5t58 -298.5q0 -339 -213 -545q-213 -197 -510 -197q-256 0 -454 162l-185 -209l-51 39l187 213q-205 205 -205 512zM326 694q0 -226 73 -391l756 858q-125 207 -360 207 q-219 0 -344 -178.5t-125 -495.5zM430 242q126 -211 365 -211q154 0 261 89.5t156.5 238t49.5 343.5q0 226 -74 396z" />
<glyph unicode="&#xd9;" horiz-adv-x="1619" d="M70 1354v45h637v-45q-78 -4 -148 -27q-63 -20 -63 -100v-817q0 -50 7.5 -94t32 -94t63.5 -85t108 -58.5t161 -23.5q93 0 166.5 24.5t116.5 62.5t71 88t38 94.5t10 89.5v606q0 229 -70 274q-35 23 -102 40.5t-107 19.5v45h613v-45q-35 -2 -97.5 -16.5t-91.5 -32.5 q-67 -43 -67 -273v-626q0 -96 -36 -173.5t-91.5 -126t-128 -81t-140.5 -45.5t-133 -13q-130 0 -235 32.5t-171.5 88.5t-101.5 128t-35 153v848q0 68 -63 102q-26 13 -70.5 23t-72.5 12zM524 1810q0 30 24 54t58 24q40 0 68.5 -19t56.5 -69q89 -150 199 -311l-29 -25 q-94 75 -188.5 146.5t-114.5 87.5q-42 33 -58 55t-16 57z" />
<glyph unicode="&#xda;" horiz-adv-x="1619" d="M70 1354v45h637v-45q-78 -4 -148 -27q-63 -20 -63 -100v-817q0 -50 7.5 -94t32 -94t63.5 -85t108 -58.5t161 -23.5q93 0 166.5 24.5t116.5 62.5t71 88t38 94.5t10 89.5v606q0 229 -70 274q-35 23 -102 40.5t-107 19.5v45h613v-45q-35 -2 -97.5 -16.5t-91.5 -32.5 q-67 -43 -67 -273v-626q0 -96 -36 -173.5t-91.5 -126t-128 -81t-140.5 -45.5t-133 -13q-130 0 -235 32.5t-171.5 88.5t-101.5 128t-35 153v848q0 68 -63 102q-26 13 -70.5 23t-72.5 12zM731 1489q110 161 199 311q28 50 56.5 69t68.5 19q34 0 58 -24t24 -54q0 -35 -16 -57 t-58 -55q-20 -16 -114.5 -87.5t-188.5 -146.5z" />
<glyph unicode="&#xdb;" horiz-adv-x="1619" d="M70 1354v45h637v-45q-78 -4 -148 -27q-63 -20 -63 -100v-817q0 -50 7.5 -94t32 -94t63.5 -85t108 -58.5t161 -23.5q93 0 166.5 24.5t116.5 62.5t71 88t38 94.5t10 89.5v606q0 229 -70 274q-35 23 -102 40.5t-107 19.5v45h613v-45q-35 -2 -97.5 -16.5t-91.5 -32.5 q-67 -43 -67 -273v-626q0 -96 -36 -173.5t-91.5 -126t-128 -81t-140.5 -45.5t-133 -13q-130 0 -235 32.5t-171.5 88.5t-101.5 128t-35 153v848q0 68 -63 102q-26 13 -70.5 23t-72.5 12zM520 1497q128 185 234 350q21 31 34.5 38t55.5 7q30 0 44 -4t20 -10t20 -27 q21 -31 98 -148.5t137 -205.5l-30 -24l-293 274l-289 -274z" />
<glyph unicode="&#xdc;" horiz-adv-x="1619" d="M70 1354v45h637v-45q-78 -4 -148 -27q-63 -20 -63 -100v-817q0 -50 7.5 -94t32 -94t63.5 -85t108 -58.5t161 -23.5q93 0 166.5 24.5t116.5 62.5t71 88t38 94.5t10 89.5v606q0 229 -70 274q-35 23 -102 40.5t-107 19.5v45h613v-45q-35 -2 -97.5 -16.5t-91.5 -32.5 q-67 -43 -67 -273v-626q0 -96 -36 -173.5t-91.5 -126t-128 -81t-140.5 -45.5t-133 -13q-130 0 -235 32.5t-171.5 88.5t-101.5 128t-35 153v848q0 68 -63 102q-26 13 -70.5 23t-72.5 12zM500 1651q0 49 34.5 85t81.5 36q53 0 88 -33.5t35 -79.5q0 -52 -35.5 -88.5 t-87.5 -36.5q-47 0 -81.5 35t-34.5 82zM944 1651q0 50 35 85.5t84 35.5q51 0 86 -34t35 -79q0 -51 -35 -88t-86 -37q-49 0 -84 34.5t-35 82.5z" />
<glyph unicode="&#xdd;" horiz-adv-x="1280" d="M-66 1354v45h660v-45q-44 -2 -87 -9t-81.5 -23.5t-38.5 -39.5q0 -36 318 -602q335 527 335 575q0 32 -37.5 54.5t-83.5 32t-100 12.5v45h533v-45q-18 -1 -59.5 -15.5t-59.5 -25.5q-38 -22 -59 -42t-56 -63q-53 -65 -112.5 -158t-96 -157t-116.5 -209 q-27 -50 -44.5 -114.5t-17.5 -114.5v-273q0 -75 64 -102q19 -8 80 -21t88 -14v-45h-680v45q32 2 90.5 10t77.5 15q63 23 63 102v356q0 50 -53 154q-143 279 -271 498q-57 99 -124 139q-58 31 -132 35zM639 1489q110 161 199 311q28 50 56.5 69t68.5 19q34 0 57.5 -24 t23.5 -54q0 -35 -15.5 -57t-57.5 -55q-20 -16 -114.5 -87.5t-188.5 -146.5z" />
<glyph unicode="&#xde;" horiz-adv-x="1271" d="M92 0v45q31 2 80 9t68 14q63 23 63 102v1059q0 79 -63 102q-19 7 -68 14t-80 9v45h653v-45q-40 -2 -90.5 -9t-70.5 -14q-64 -24 -64 -102v-133h250q188 0 313 -89.5t125 -242.5q0 -101 -45 -183.5t-120 -134.5t-168.5 -80t-194.5 -28h-160v-168q0 -78 64 -102 q20 -7 70.5 -14t90.5 -9v-45h-653zM520 399h101q84 0 147.5 24t97.5 58t55 80.5t27 81.5t6 70q0 63 -14 117t-45.5 102.5t-92 77t-143.5 28.5h-139v-639z" />
<glyph unicode="&#xdf;" horiz-adv-x="1202" d="M41 836v86h172v63q0 273 139 420q117 125 301 125q85 0 158 -30.5t120.5 -92.5t47.5 -143q0 -65 -17 -117t-42 -83t-54.5 -58.5t-54.5 -46t-42 -43.5t-17 -52q0 -34 9 -59t52.5 -74t130.5 -119q62 -50 94.5 -80t61 -69t39 -80t10.5 -98q0 -124 -94.5 -219t-223.5 -95 q-143 0 -215.5 60t-72.5 151q0 55 31.5 88t82.5 33q41 0 67 -26.5t26 -63.5q0 -25 -17.5 -55.5t-17.5 -48.5q0 -35 31 -63t98 -28q76 0 122 49t46 128q0 69 -37.5 122.5t-163.5 151.5q-95 75 -146 140t-51 141q0 34 12 62.5t31 50t42 44t45.5 49.5t41.5 60t31 83t12 111 q0 133 -56.5 203t-145.5 70q-106 0 -162.5 -103.5t-63.5 -332.5q0 -15 -1 -51t-1 -54v-942h-340v41q60 3 99 14q55 17 55 92v689h-172z" />
<glyph unicode="&#xe0;" horiz-adv-x="1003" d="M76 193q0 60 16 105.5t47 75.5t62 48t75 35q21 8 157.5 54t187.5 75v114q0 18 -2 36.5t-12 51.5t-27 57.5t-52.5 43t-83.5 18.5q-11 0 -22 -1.5t-19.5 -3.5t-17 -6t-14 -6.5t-12.5 -8.5l-10.5 -9t-9.5 -9.5t-7.5 -8.5t-6.5 -8.5t-6 -7.5q0 -14 9.5 -55.5t9.5 -65.5 q0 -34 -33 -61t-86 -27q-47 0 -69.5 30.5t-22.5 75.5q0 59 50 110t126 79t154 28q48 0 84 -2.5t74.5 -10t65.5 -21t53 -36t41.5 -54.5t24.5 -77t9 -102q0 -104 -5 -271.5t-5 -187.5q0 -32 25.5 -68t70.5 -36q16 0 29 5.5t21 18.5t13 25t8.5 34t5 35.5t3.5 39.5h45 q-9 -138 -63.5 -201t-153.5 -63q-71 0 -113 32.5t-67 104.5h-7q-57 -67 -135 -104.5t-168 -37.5q-106 0 -171.5 60t-65.5 158zM209 1419q0 30 24 54t58 24q40 0 68.5 -19t56.5 -69q95 -161 198 -311l-28 -25q-94 75 -188.5 146.5t-114.5 87.5q-42 33 -58 55t-16 57zM274 223 q0 -164 140 -164q72 0 113.5 26.5t86.5 82.5l9 358q-50 -15 -84.5 -27t-74 -28.5t-65.5 -33t-51.5 -38.5t-40.5 -47.5t-24 -58t-9 -70.5z" />
<glyph unicode="&#xe1;" horiz-adv-x="1003" d="M76 193q0 60 16 105.5t47 75.5t62 48t75 35q21 8 157.5 54t187.5 75v114q0 18 -2 36.5t-12 51.5t-27 57.5t-52.5 43t-83.5 18.5q-11 0 -22 -1.5t-19.5 -3.5t-17 -6t-14 -6.5t-12.5 -8.5l-10.5 -9t-9.5 -9.5t-7.5 -8.5t-6.5 -8.5t-6 -7.5q0 -14 9.5 -55.5t9.5 -65.5 q0 -34 -33 -61t-86 -27q-47 0 -69.5 30.5t-22.5 75.5q0 59 50 110t126 79t154 28q48 0 84 -2.5t74.5 -10t65.5 -21t53 -36t41.5 -54.5t24.5 -77t9 -102q0 -104 -5 -271.5t-5 -187.5q0 -32 25.5 -68t70.5 -36q16 0 29 5.5t21 18.5t13 25t8.5 34t5 35.5t3.5 39.5h45 q-9 -138 -63.5 -201t-153.5 -63q-71 0 -113 32.5t-67 104.5h-7q-57 -67 -135 -104.5t-168 -37.5q-106 0 -171.5 60t-65.5 158zM274 223q0 -164 140 -164q72 0 113.5 26.5t86.5 82.5l9 358q-50 -15 -84.5 -27t-74 -28.5t-65.5 -33t-51.5 -38.5t-40.5 -47.5t-24 -58t-9 -70.5z M332 1098q103 150 198 311q28 50 56.5 69t68.5 19q34 0 58 -24t24 -54q0 -35 -15.5 -57t-57.5 -55q-19 -16 -114.5 -87.5t-189.5 -146.5z" />
<glyph unicode="&#xe2;" horiz-adv-x="1003" d="M76 193q0 60 16 105.5t47 75.5t62 48t75 35q21 8 157.5 54t187.5 75v114q0 18 -2 36.5t-12 51.5t-27 57.5t-52.5 43t-83.5 18.5q-11 0 -22 -1.5t-19.5 -3.5t-17 -6t-14 -6.5t-12.5 -8.5l-10.5 -9t-9.5 -9.5t-7.5 -8.5t-6.5 -8.5t-6 -7.5q0 -14 9.5 -55.5t9.5 -65.5 q0 -34 -33 -61t-86 -27q-47 0 -69.5 30.5t-22.5 75.5q0 59 50 110t126 79t154 28q48 0 84 -2.5t74.5 -10t65.5 -21t53 -36t41.5 -54.5t24.5 -77t9 -102q0 -104 -5 -271.5t-5 -187.5q0 -32 25.5 -68t70.5 -36q16 0 29 5.5t21 18.5t13 25t8.5 34t5 35.5t3.5 39.5h45 q-9 -138 -63.5 -201t-153.5 -63q-71 0 -113 32.5t-67 104.5h-7q-57 -67 -135 -104.5t-168 -37.5q-106 0 -171.5 60t-65.5 158zM147 1106q128 185 234 350q21 31 34.5 38t55.5 7q30 0 44 -4t20 -10t20 -27q22 -31 99 -148.5t137 -205.5l-31 -25l-293 275l-289 -275zM274 223 q0 -164 140 -164q72 0 113.5 26.5t86.5 82.5l9 358q-50 -15 -84.5 -27t-74 -28.5t-65.5 -33t-51.5 -38.5t-40.5 -47.5t-24 -58t-9 -70.5z" />
<glyph unicode="&#xe3;" horiz-adv-x="1003" d="M76 193q0 60 16 105.5t47 75.5t62 48t75 35q21 8 157.5 54t187.5 75v114q0 18 -2 36.5t-12 51.5t-27 57.5t-52.5 43t-83.5 18.5q-11 0 -22 -1.5t-19.5 -3.5t-17 -6t-14 -6.5t-12.5 -8.5l-10.5 -9t-9.5 -9.5t-7.5 -8.5t-6.5 -8.5t-6 -7.5q0 -14 9.5 -55.5t9.5 -65.5 q0 -34 -33 -61t-86 -27q-47 0 -69.5 30.5t-22.5 75.5q0 59 50 110t126 79t154 28q48 0 84 -2.5t74.5 -10t65.5 -21t53 -36t41.5 -54.5t24.5 -77t9 -102q0 -104 -5 -271.5t-5 -187.5q0 -32 25.5 -68t70.5 -36q16 0 29 5.5t21 18.5t13 25t8.5 34t5 35.5t3.5 39.5h45 q-9 -138 -63.5 -201t-153.5 -63q-71 0 -113 32.5t-67 104.5h-7q-57 -67 -135 -104.5t-168 -37.5q-106 0 -171.5 60t-65.5 158zM90 1145q14 40 36.5 80.5t54.5 82t75.5 67.5t89.5 26q53 0 102.5 -17.5t79.5 -38t67.5 -38t70.5 -17.5q55 0 89.5 17t46.5 35t35 67l9 18l41 -14 q-11 -39 -34.5 -81.5t-56.5 -82.5t-78.5 -66t-92.5 -26q-56 0 -105.5 17.5t-79 38t-68.5 38t-77 17.5q-32 0 -54 -7.5t-42.5 -29.5t-32.5 -40.5t-37 -62.5zM274 223q0 -164 140 -164q72 0 113.5 26.5t86.5 82.5l9 358q-50 -15 -84.5 -27t-74 -28.5t-65.5 -33t-51.5 -38.5 t-40.5 -47.5t-24 -58t-9 -70.5z" />
<glyph unicode="&#xe4;" horiz-adv-x="1003" d="M76 193q0 60 16 105.5t47 75.5t62 48t75 35q21 8 157.5 54t187.5 75v114q0 18 -2 36.5t-12 51.5t-27 57.5t-52.5 43t-83.5 18.5q-11 0 -22 -1.5t-19.5 -3.5t-17 -6t-14 -6.5t-12.5 -8.5l-10.5 -9t-9.5 -9.5t-7.5 -8.5t-6.5 -8.5t-6 -7.5q0 -14 9.5 -55.5t9.5 -65.5 q0 -34 -33 -61t-86 -27q-47 0 -69.5 30.5t-22.5 75.5q0 59 50 110t126 79t154 28q48 0 84 -2.5t74.5 -10t65.5 -21t53 -36t41.5 -54.5t24.5 -77t9 -102q0 -104 -5 -271.5t-5 -187.5q0 -32 25.5 -68t70.5 -36q16 0 29 5.5t21 18.5t13 25t8.5 34t5 35.5t3.5 39.5h45 q-9 -138 -63.5 -201t-153.5 -63q-71 0 -113 32.5t-67 104.5h-7q-57 -67 -135 -104.5t-168 -37.5q-106 0 -171.5 60t-65.5 158zM135 1321q0 49 35 85t82 36q53 0 88 -33.5t35 -79.5q0 -52 -35.5 -88.5t-87.5 -36.5q-47 0 -82 35t-35 82zM274 223q0 -164 140 -164 q72 0 113.5 26.5t86.5 82.5l9 358q-50 -15 -84.5 -27t-74 -28.5t-65.5 -33t-51.5 -38.5t-40.5 -47.5t-24 -58t-9 -70.5zM580 1321q0 50 34.5 85.5t83.5 35.5q51 0 86 -34t35 -79q0 -51 -35 -88t-86 -37q-49 0 -83.5 34.5t-34.5 82.5z" />
<glyph unicode="&#xe5;" horiz-adv-x="1003" d="M76 193q0 60 16 105.5t47 75.5t62 48t75 35q21 8 157.5 54t187.5 75v114q0 18 -2 36.5t-12 51.5t-27 57.5t-52.5 43t-83.5 18.5q-11 0 -22 -1.5t-19.5 -3.5t-17 -6t-14 -6.5t-12.5 -8.5l-10.5 -9t-9.5 -9.5t-7.5 -8.5t-6.5 -8.5t-6 -7.5q0 -14 9.5 -55.5t9.5 -65.5 q0 -34 -33 -61t-86 -27q-47 0 -69.5 30.5t-22.5 75.5q0 59 50 110t126 79t154 28q48 0 84 -2.5t74.5 -10t65.5 -21t53 -36t41.5 -54.5t24.5 -77t9 -102q0 -104 -5 -271.5t-5 -187.5q0 -32 25.5 -68t70.5 -36q16 0 29 5.5t21 18.5t13 25t8.5 34t5 35.5t3.5 39.5h45 q-9 -138 -63.5 -201t-153.5 -63q-71 0 -113 32.5t-67 104.5h-7q-57 -67 -135 -104.5t-168 -37.5q-106 0 -171.5 60t-65.5 158zM252 1288q0 88 62.5 144.5t152.5 56.5q92 0 153.5 -56t61.5 -145q0 -88 -60.5 -144.5t-154.5 -56.5q-96 0 -155.5 55.5t-59.5 145.5zM274 223 q0 -164 140 -164q72 0 113.5 26.5t86.5 82.5l9 358q-50 -15 -84.5 -27t-74 -28.5t-65.5 -33t-51.5 -38.5t-40.5 -47.5t-24 -58t-9 -70.5zM344 1288q0 -69 33 -111t90 -42q58 0 90.5 41.5t32.5 111.5q0 68 -33 111t-90 43t-90 -41.5t-33 -112.5z" />
<glyph unicode="&#xe6;" horiz-adv-x="1474" d="M76 193q0 60 16.5 105.5t48.5 75.5t64 48t78 35q41 15 118 40t133.5 46t94.5 43v114q0 17 -2 36t-12 52t-27.5 57.5t-53 43t-83.5 18.5q-83 0 -134 -65q0 -14 9.5 -55.5t9.5 -65.5q0 -34 -33 -61t-86 -27q-47 0 -69.5 30.5t-22.5 75.5q0 59 52 109t129.5 77t156.5 27 q226 0 309 -108q124 108 268 108q102 0 177.5 -32.5t119 -90t64 -126.5t20.5 -150v-14h-608v-33q0 -204 74.5 -322t226.5 -118q61 0 102 9t73.5 34.5t54 53t55.5 81.5l37 -25q-56 -112 -154.5 -178t-224.5 -66q-241 0 -363 193h-6q-74 -102 -165 -147.5t-204 -45.5 q-109 0 -176 60t-67 158zM274 223q0 -83 38.5 -124.5t107.5 -41.5q52 0 94 19t64 40t53 60v350q-51 -16 -85 -27.5t-75 -28.5t-67.5 -33t-53 -38.5t-42 -47t-25 -57.5t-9.5 -71zM813 584l401 4q0 61 -6 109.5t-23 99.5t-54.5 79.5t-92.5 28.5q-94 0 -150.5 -84t-74.5 -237z " />
<glyph unicode="&#xe7;" horiz-adv-x="890" d="M66 467q0 95 32 182.5t89 154.5t144 107.5t189 40.5q151 0 234.5 -68.5t83.5 -168.5q0 -53 -27.5 -84t-79.5 -31q-41 0 -78 24.5t-37 77.5q0 49 13.5 81t13.5 46q-7 42 -36.5 58t-86.5 16q-48 0 -90.5 -22.5t-78.5 -69.5t-57.5 -131t-21.5 -195q0 -184 77.5 -301.5 t209.5 -117.5q105 0 171 44t120 138l39 -29q-60 -107 -161 -175.5t-218 -68.5q-33 0 -49 2v-90q264 0 264 -155q0 -43 -16 -76t-48 -54t-69 -35t-89.5 -20.5t-98 -9t-105.5 -2.5v53q133 0 172 7q107 18 107 100q0 26 -14.5 42.5t-44.5 23.5t-53.5 8.5t-62.5 1.5v215 q-164 33 -250.5 162t-86.5 319z" />
<glyph unicode="&#xe8;" horiz-adv-x="933" d="M66 471q0 93 29.5 179t83 153.5t136 108t181.5 40.5q102 0 178 -31.5t119.5 -87t64.5 -124t21 -150.5v-18h-611v-23q0 -102 17 -182.5t53 -142t95.5 -94.5t139.5 -33q59 0 101 10t75 35t56.5 54.5t56.5 82.5l37 -25q-56 -113 -156 -180.5t-225 -67.5q-113 0 -200.5 39 t-142 108t-82 157.5t-27.5 191.5zM231 1419q0 30 24 54t58 24q40 0 68.5 -19t56.5 -69q89 -150 199 -311l-29 -25q-94 75 -188.5 146.5t-114.5 87.5q-42 33 -58 55t-16 57zM268 586l412 4q0 315 -186 315q-97 0 -159.5 -87.5t-66.5 -231.5z" />
<glyph unicode="&#xe9;" horiz-adv-x="933" d="M66 471q0 93 29.5 179t83 153.5t136 108t181.5 40.5q102 0 178 -31.5t119.5 -87t64.5 -124t21 -150.5v-18h-611v-23q0 -102 17 -182.5t53 -142t95.5 -94.5t139.5 -33q59 0 101 10t75 35t56.5 54.5t56.5 82.5l37 -25q-56 -113 -156 -180.5t-225 -67.5q-113 0 -200.5 39 t-142 108t-82 157.5t-27.5 191.5zM268 586l412 4q0 315 -186 315q-97 0 -159.5 -87.5t-66.5 -231.5zM385 1098q110 161 199 311q28 50 56.5 69t68.5 19q34 0 58 -24t24 -54q0 -35 -16 -57t-58 -55q-20 -16 -114.5 -87.5t-188.5 -146.5z" />
<glyph unicode="&#xea;" horiz-adv-x="933" d="M66 471q0 93 29.5 179t83 153.5t136 108t181.5 40.5q102 0 178 -31.5t119.5 -87t64.5 -124t21 -150.5v-18h-611v-23q0 -102 17 -182.5t53 -142t95.5 -94.5t139.5 -33q59 0 101 10t75 35t56.5 54.5t56.5 82.5l37 -25q-56 -113 -156 -180.5t-225 -67.5q-113 0 -200.5 39 t-142 108t-82 157.5t-27.5 191.5zM176 1106q128 185 234 350q21 31 34.5 38t55.5 7q30 0 44 -4t20 -10t20 -27q21 -31 98 -148.5t137 -205.5l-31 -25l-292 275l-289 -275zM268 586l412 4q0 315 -186 315q-97 0 -159.5 -87.5t-66.5 -231.5z" />
<glyph unicode="&#xeb;" horiz-adv-x="933" d="M66 471q0 93 29.5 179t83 153.5t136 108t181.5 40.5q102 0 178 -31.5t119.5 -87t64.5 -124t21 -150.5v-18h-611v-23q0 -102 17 -182.5t53 -142t95.5 -94.5t139.5 -33q59 0 101 10t75 35t56.5 54.5t56.5 82.5l37 -25q-56 -113 -156 -180.5t-225 -67.5q-113 0 -200.5 39 t-142 108t-82 157.5t-27.5 191.5zM166 1321q0 49 35 85t82 36q53 0 88 -33.5t35 -79.5q0 -52 -35.5 -88.5t-87.5 -36.5q-47 0 -82 35t-35 82zM268 586l412 4q0 315 -186 315q-97 0 -159.5 -87.5t-66.5 -231.5zM610 1321q0 50 35 85.5t84 35.5q51 0 86 -34t35 -79 q0 -51 -35 -88t-86 -37q-49 0 -84 34.5t-35 82.5z" />
<glyph unicode="&#xec;" horiz-adv-x="585" d="M37 877v38l348 23l14 -14v-764q0 -69 56 -94q56 -23 90 -25v-41h-477v41q49 3 90 14q55 17 55 92v588q-6 69 -55 103q-20 13 -57 25.5t-64 13.5zM37 1419q0 30 24 54t58 24q40 0 68.5 -19t56.5 -69q95 -161 198 -311l-28 -25q-94 75 -188.5 146.5t-114.5 87.5 q-42 33 -58 55t-16 57z" />
<glyph unicode="&#xed;" horiz-adv-x="585" d="M37 877v38l348 23l14 -14v-764q0 -69 56 -94q56 -23 90 -25v-41h-477v41q49 3 90 14q55 17 55 92v588q-6 69 -55 103q-20 13 -57 25.5t-64 13.5zM102 1098q110 161 199 311q28 50 56.5 69t68.5 19q34 0 58 -24t24 -54q0 -35 -16 -57t-58 -55q-20 -16 -114.5 -87.5 t-188.5 -146.5z" />
<glyph unicode="&#xee;" horiz-adv-x="585" d="M-14 1106q59 97 122.5 216.5t71.5 133.5q20 33 28 38q12 7 54 7h17.5t14 -1t10 -1.5t8 -3.5t6 -3.5t5 -5.5t4.5 -6.5t5 -9t6 -10.5q15 -25 77.5 -141.5t119.5 -212.5l-31 -25l-246 285l-242 -285zM37 877v38l348 23l14 -14v-764q0 -69 56 -94q56 -23 90 -25v-41h-477v41 q49 3 90 14q55 17 55 92v588q-6 69 -55 103q-20 13 -57 25.5t-64 13.5z" />
<glyph unicode="&#xef;" horiz-adv-x="585" d="M-37 1321q0 50 34 85.5t81 35.5q53 0 87 -33.5t34 -79.5q0 -52 -34.5 -88.5t-86.5 -36.5q-47 0 -81 35t-34 82zM37 877v38l348 23l14 -14v-764q0 -69 56 -94q56 -23 90 -25v-41h-477v41q49 3 90 14q55 17 55 92v588q-6 69 -55 103q-20 13 -57 25.5t-64 13.5zM346 1321 q0 50 34 85.5t83 35.5q51 0 85 -33.5t34 -79.5q0 -51 -34 -87t-85 -36q-49 0 -83 33.5t-34 81.5z" />
<glyph unicode="&#xf0;" horiz-adv-x="1083" d="M66 471q0 215 126 348t328 133q89 0 162 -39t109 -96l8 2q-14 129 -60 260.5t-114 220.5l-236 -141l-31 49l230 140q-69 85 -168 149l26 37q55 -28 120 -71t96 -72l198 120l33 -53l-182 -108q301 -275 301 -758q0 -185 -55 -324t-165.5 -218t-263.5 -79 q-90 0 -172.5 33.5t-147.5 95t-103.5 158t-38.5 213.5zM272 481q0 -218 66.5 -340.5t200.5 -122.5q70 0 122 39.5t81.5 108.5t44 151t14.5 177q0 113 -28 203.5t-88 148t-144 57.5q-75 0 -129.5 -36t-84 -99t-42.5 -133.5t-13 -153.5z" />
<glyph unicode="&#xf1;" horiz-adv-x="1196" d="M55 877v38l328 23l14 -14v-140h4q5 5 23.5 23t24.5 24t24.5 22.5t28 23l28.5 19.5t33 19t35 14.5t40.5 12.5t44 7t50.5 3q139 0 209 -86t70 -237v-473q0 -70 53 -93q48 -20 90 -22v-41h-483v41q56 3 96 14q55 17 55 92v494q0 101 -50 160t-120 59q-69 0 -127 -27.5 t-86.5 -57t-42.5 -58.5v-559q0 -68 56 -92q49 -22 96 -25v-41h-483v41q49 3 90 14q55 17 55 92v588q-7 76 -55 109q-47 30 -101 33zM223 1145q14 40 36.5 80.5t54.5 82t75.5 67.5t89.5 26q53 0 102.5 -17.5t79.5 -38t67.5 -38t70.5 -17.5q55 0 89.5 17t46.5 35t35 67l9 18 l41 -14q-11 -39 -34.5 -81.5t-56.5 -82.5t-78.5 -66t-92.5 -26q-56 0 -105.5 17.5t-79 38t-68.5 38t-77 17.5q-32 0 -54 -7.5t-42.5 -29.5t-32.5 -40.5t-37 -62.5z" />
<glyph unicode="&#xf2;" horiz-adv-x="1071" d="M63 459q0 219 132 356t346 137q211 0 339 -135.5t128 -343.5q0 -138 -55 -250.5t-166 -182t-261 -69.5q-124 0 -228.5 58t-169.5 171t-65 259zM270 475q0 -95 15.5 -175t46.5 -144.5t84 -101t123 -36.5q88 0 148.5 63t87 162.5t26.5 227.5q0 86 -13.5 159.5t-42.5 137 t-81.5 100.5t-124.5 37q-76 0 -131 -38.5t-84 -104.5t-41.5 -136.5t-12.5 -150.5zM289 1419q0 30 24 54t58 24q40 0 68.5 -19t56.5 -69q95 -161 198 -311l-28 -25q-94 75 -189.5 146.5t-114.5 87.5q-42 33 -57.5 55t-15.5 57z" />
<glyph unicode="&#xf3;" horiz-adv-x="1071" d="M63 459q0 219 132 356t346 137q211 0 339 -135.5t128 -343.5q0 -138 -55 -250.5t-166 -182t-261 -69.5q-124 0 -228.5 58t-169.5 171t-65 259zM270 475q0 -95 15.5 -175t46.5 -144.5t84 -101t123 -36.5q88 0 148.5 63t87 162.5t26.5 227.5q0 86 -13.5 159.5t-42.5 137 t-81.5 100.5t-124.5 37q-76 0 -131 -38.5t-84 -104.5t-41.5 -136.5t-12.5 -150.5zM358 1098q110 161 199 311q28 50 56.5 69t68.5 19q34 0 58 -24t24 -54q0 -35 -16 -57t-58 -55q-20 -16 -114.5 -87.5t-188.5 -146.5z" />
<glyph unicode="&#xf4;" horiz-adv-x="1071" d="M63 459q0 219 132 356t346 137q211 0 339 -135.5t128 -343.5q0 -138 -55 -250.5t-166 -182t-261 -69.5q-124 0 -228.5 58t-169.5 171t-65 259zM217 1106q128 185 234 350q21 31 34.5 38t55.5 7q30 0 44 -4t20 -10t20 -27q21 -31 98 -148.5t137 -205.5l-31 -25l-292 275 l-289 -275zM270 475q0 -95 15.5 -175t46.5 -144.5t84 -101t123 -36.5q88 0 148.5 63t87 162.5t26.5 227.5q0 86 -13.5 159.5t-42.5 137t-81.5 100.5t-124.5 37q-76 0 -131 -38.5t-84 -104.5t-41.5 -136.5t-12.5 -150.5z" />
<glyph unicode="&#xf5;" horiz-adv-x="1071" d="M63 459q0 219 132 356t346 137q211 0 339 -135.5t128 -343.5q0 -138 -55 -250.5t-166 -182t-261 -69.5q-124 0 -228.5 58t-169.5 171t-65 259zM141 1145q14 40 36.5 80.5t54.5 82t75.5 67.5t89.5 26q53 0 102.5 -17.5t79.5 -38t67.5 -38t70.5 -17.5q55 0 89.5 17t46.5 35 t35 67l9 18l41 -14q-11 -39 -34.5 -81.5t-56.5 -82.5t-78.5 -66t-92.5 -26q-56 0 -105.5 17.5t-79 38t-68.5 38t-77 17.5q-32 0 -54 -7.5t-42.5 -29.5t-32.5 -40.5t-37 -62.5zM270 475q0 -95 15.5 -175t46.5 -144.5t84 -101t123 -36.5q88 0 148.5 63t87 162.5t26.5 227.5 q0 86 -13.5 159.5t-42.5 137t-81.5 100.5t-124.5 37q-76 0 -131 -38.5t-84 -104.5t-41.5 -136.5t-12.5 -150.5z" />
<glyph unicode="&#xf6;" horiz-adv-x="1071" d="M63 459q0 219 132 356t346 137q211 0 339 -135.5t128 -343.5q0 -138 -55 -250.5t-166 -182t-261 -69.5q-124 0 -228.5 58t-169.5 171t-65 259zM197 1321q0 49 34.5 85t81.5 36q53 0 88 -33.5t35 -79.5q0 -52 -35.5 -88.5t-87.5 -36.5q-47 0 -81.5 35t-34.5 82zM270 475 q0 -95 15.5 -175t46.5 -144.5t84 -101t123 -36.5q88 0 148.5 63t87 162.5t26.5 227.5q0 86 -13.5 159.5t-42.5 137t-81.5 100.5t-124.5 37q-76 0 -131 -38.5t-84 -104.5t-41.5 -136.5t-12.5 -150.5zM641 1321q0 50 35 85.5t84 35.5q51 0 86 -34t35 -79q0 -51 -35 -88 t-86 -37q-49 0 -84 34.5t-35 82.5z" />
<glyph unicode="&#xf8;" horiz-adv-x="1071" d="M63 459q0 219 132 356t346 137q166 0 282 -86l127 150l49 -35l-129 -154q138 -138 138 -354q0 -138 -55 -250.5t-166 -182t-261 -69.5q-166 0 -288 101l-119 -142l-47 33l123 148q-132 139 -132 348zM270 475q0 -129 31 -237l442 530q-65 137 -204 137q-76 0 -131 -38.5 t-84 -104.5t-41.5 -136.5t-12.5 -150.5zM324 174q68 -156 215 -156q88 0 148.5 63t87 162.5t26.5 227.5q0 139 -31 236z" />
<glyph unicode="&#xf9;" horiz-adv-x="1161" d="M29 874v39l329 25l15 -14v-652q0 -102 46.5 -158.5t115.5 -56.5q159 0 247 140v548q-7 71 -53 103q-35 22 -133 26v39l358 25l15 -14v-742q6 -65 53 -98q37 -24 98 -27v-39l-321 -22l-15 14v125h-6q-72 -72 -108 -97q-91 -63 -219 -63q-136 0 -201.5 90.5t-65.5 243.5 v430q-7 71 -53 103q-45 29 -102 32zM305 1419q0 30 24 54t58 24q40 0 68.5 -19t56.5 -69q89 -150 199 -311l-29 -25q-94 75 -188.5 146.5t-114.5 87.5q-42 33 -58 55t-16 57z" />
<glyph unicode="&#xfa;" horiz-adv-x="1161" d="M29 874v39l329 25l15 -14v-652q0 -102 46.5 -158.5t115.5 -56.5q159 0 247 140v548q-7 71 -53 103q-35 22 -133 26v39l358 25l15 -14v-742q6 -65 53 -98q37 -24 98 -27v-39l-321 -22l-15 14v125h-6q-72 -72 -108 -97q-91 -63 -219 -63q-136 0 -201.5 90.5t-65.5 243.5 v430q-7 71 -53 103q-45 29 -102 32zM434 1098q110 161 199 311q28 50 56.5 69t68.5 19q34 0 58 -24t24 -54q0 -35 -16 -57t-58 -55q-20 -16 -114.5 -87.5t-188.5 -146.5z" />
<glyph unicode="&#xfb;" horiz-adv-x="1161" d="M29 874v39l329 25l15 -14v-652q0 -102 46.5 -158.5t115.5 -56.5q159 0 247 140v548q-7 71 -53 103q-35 22 -133 26v39l358 25l15 -14v-742q6 -65 53 -98q37 -24 98 -27v-39l-321 -22l-15 14v125h-6q-72 -72 -108 -97q-91 -63 -219 -63q-136 0 -201.5 90.5t-65.5 243.5 v430q-7 71 -53 103q-45 29 -102 32zM223 1106q128 185 234 350q21 31 34.5 38t55.5 7q30 0 44 -4t20 -10t20 -27q21 -31 98 -148.5t137 -205.5l-30 -25l-293 275l-289 -275z" />
<glyph unicode="&#xfc;" horiz-adv-x="1161" d="M29 874v39l329 25l15 -14v-652q0 -102 46.5 -158.5t115.5 -56.5q159 0 247 140v548q-7 71 -53 103q-35 22 -133 26v39l358 25l15 -14v-742q6 -65 53 -98q37 -24 98 -27v-39l-321 -22l-15 14v125h-6q-72 -72 -108 -97q-91 -63 -219 -63q-136 0 -201.5 90.5t-65.5 243.5 v430q-7 71 -53 103q-45 29 -102 32zM211 1321q0 49 35 85t82 36q53 0 88 -33.5t35 -79.5q0 -52 -35.5 -88.5t-87.5 -36.5q-47 0 -82 35t-35 82zM655 1321q0 50 35 85.5t84 35.5q51 0 86 -34t35 -79q0 -51 -35 -88t-86 -37q-49 0 -84 34.5t-35 82.5z" />
<glyph unicode="&#xfd;" horiz-adv-x="946" d="M-27 883v43h449v-47q-111 -5 -111 -43q0 -6 15 -43q20 -54 103.5 -258t123.5 -306h4q135 321 213 525q12 32 12 57q0 27 -54 48t-93 26v41h354v-39q-33 -5 -82 -39.5t-69 -75.5q-27 -62 -112 -266t-114 -273l-106 -264q-39 -88 -72.5 -154.5t-60.5 -112.5t-54.5 -77 t-48 -48.5t-47 -26.5t-46 -11t-50.5 -2t-64 12.5t-60.5 46t-27.5 80.5q0 43 33 81t84 38q42 0 74.5 -23.5t32.5 -78.5v-72q33 8 72 48t70 91.5t57.5 101.5t41.5 84l15 34q-64 162 -112 279.5t-109.5 263.5t-108.5 259q-18 41 -61 68t-91 33zM436 1098q110 161 199 311 q28 50 56.5 69t68.5 19q34 0 58 -24t24 -54q0 -35 -16 -57t-58 -55q-20 -16 -114.5 -87.5t-188.5 -146.5z" />
<glyph unicode="&#xfe;" horiz-adv-x="1128" d="M-23 1466v39l363 23l14 -15v-684l6 -2q45 48 117.5 86.5t159.5 38.5q181 0 303.5 -136t122.5 -357q0 -103 -39 -194.5t-103 -155.5t-148.5 -101t-174.5 -37q-150 0 -236 64h-8v-330q0 -74 58 -96q24 -9 69 -19.5t72 -11.5v-41h-551v41q55 3 113 19q53 16 53 96v1622 q0 35 -15.5 68.5t-39.5 48.5q-18 11 -62 21.5t-74 12.5zM354 201q10 -29 26.5 -57.5t43.5 -60t68 -50.5t90 -19q120 0 196 118.5t76 324.5q0 80 -16 151t-49 130.5t-90 94.5t-132 35q-130 0 -213 -96v-571z" />
<glyph unicode="&#xff;" horiz-adv-x="946" d="M-27 883v43h449v-47q-111 -5 -111 -43q0 -6 15 -43q20 -54 103.5 -258t123.5 -306h4q135 321 213 525q12 32 12 57q0 27 -54 48t-93 26v41h354v-39q-33 -5 -82 -39.5t-69 -75.5q-27 -62 -112 -266t-114 -273l-106 -264q-39 -88 -72.5 -154.5t-60.5 -112.5t-54.5 -77 t-48 -48.5t-47 -26.5t-46 -11t-50.5 -2t-64 12.5t-60.5 46t-27.5 80.5q0 43 33 81t84 38q42 0 74.5 -23.5t32.5 -78.5v-72q33 8 72 48t70 91.5t57.5 101.5t41.5 84l15 34q-64 162 -112 279.5t-109.5 263.5t-108.5 259q-18 41 -61 68t-91 33zM164 1321q0 49 35 85t82 36 q53 0 87.5 -33.5t34.5 -79.5q0 -52 -35 -88.5t-87 -36.5q-47 0 -82 35t-35 82zM608 1321q0 50 35 85.5t84 35.5q51 0 86 -34t35 -79q0 -51 -35 -88t-86 -37q-49 0 -84 34.5t-35 82.5z" />
<glyph unicode="&#x152;" horiz-adv-x="2095" d="M78 684q0 317 182 514q92 99 218 152t259 53q90 0 215.5 -2t186.5 -2h798v-318h-55q-19 74 -88 160t-131 94q-65 8 -170 8h-211v-589h148q53 0 91.5 12.5t49.5 21.5t31 29q21 21 39.5 81.5t23.5 107.5h55v-572h-55q-3 46 -24 113.5t-39 87.5q-17 19 -32 29.5t-51.5 21 t-88.5 10.5h-148v-450q0 -53 6 -84.5t19.5 -53.5t44 -32t69 -13.5t105.5 -3.5h29q81 0 119.5 1.5t81.5 12.5t65 33q45 47 93.5 131.5t72.5 155.5h51l-27 -393h-872q-144 0 -410 -4q-125 0 -243.5 47.5t-206.5 136.5q-201 204 -201 504zM324 694q0 -108 14.5 -201.5 t47.5 -175t82.5 -139.5t123.5 -91.5t166 -33.5q98 0 143 17t92 57q97 81 97 575v26q0 106 -1.5 163.5t-9 141.5t-26 137.5t-49.5 84.5q-46 46 -104 67t-142 21q-213 0 -323.5 -169.5t-110.5 -479.5z" />
<glyph unicode="&#x153;" horiz-adv-x="1656" d="M63 459q0 219 132.5 356t345.5 137q106 0 198.5 -44.5t157.5 -121.5q59 74 143.5 120t180.5 46q101 0 177 -32.5t120 -89t65 -125.5t21 -150v-14h-617v-35q0 -202 77.5 -321t229.5 -119q60 0 101.5 9.5t74.5 34.5t55.5 54t55.5 82l37 -25q-54 -112 -153.5 -179 t-223.5 -67q-110 0 -199 45t-149 125q-66 -80 -161 -127t-206 -47q-92 0 -175.5 34.5t-147.5 96t-102 154.5t-38 203zM270 475q0 -128 26.5 -228t89 -165.5t153.5 -65.5q65 0 115 36t80 99.5t44.5 144t14.5 175.5q0 86 -12.5 159.5t-40 138t-79 101.5t-122.5 37 q-75 0 -130 -39t-84 -105t-42 -137t-13 -151zM989 586l408 4q0 315 -178 315q-94 0 -162 -96t-68 -223z" />
<glyph unicode="&#x178;" horiz-adv-x="1280" d="M-66 1354v45h660v-45q-44 -2 -87 -9t-81.5 -23.5t-38.5 -39.5q0 -36 318 -602q335 527 335 575q0 32 -37.5 54.5t-83.5 32t-100 12.5v45h533v-45q-18 -1 -59.5 -15.5t-59.5 -25.5q-38 -22 -59 -42t-56 -63q-53 -65 -112.5 -158t-96 -157t-116.5 -209 q-27 -50 -44.5 -114.5t-17.5 -114.5v-273q0 -75 64 -102q19 -8 80 -21t88 -14v-45h-680v45q32 2 90.5 10t77.5 15q63 23 63 102v356q0 50 -53 154q-143 279 -271 498q-57 99 -124 139q-58 31 -132 35zM338 1651q0 49 35 85t82 36q53 0 88 -33.5t35 -79.5q0 -52 -35.5 -88.5 t-87.5 -36.5q-47 0 -82 35t-35 82zM782 1651q0 50 35 85.5t84 35.5q51 0 86 -34t35 -79q0 -51 -35 -88t-86 -37q-49 0 -84 34.5t-35 82.5z" />
<glyph unicode="&#x2c6;" horiz-adv-x="1024" d="M190 1106q128 185 234 350q21 31 34.5 38t55.5 7q30 0 44 -4t20 -10t20 -27q22 -31 99 -148.5t137 -205.5l-31 -25l-293 275l-289 -275z" />
<glyph unicode="&#x2dc;" horiz-adv-x="1024" d="M113 1145q14 40 36.5 80.5t54.5 82t75.5 67.5t89.5 26q53 0 102 -17.5t79.5 -38t67.5 -38t70 -17.5q55 0 89.5 17t46.5 35t35 67l9 18l41 -14q-11 -39 -34.5 -81.5t-56.5 -82.5t-78.5 -66t-92.5 -26q-56 0 -105.5 17.5t-79 38t-68.5 38t-77 17.5q-25 0 -45.5 -7t-34 -15 t-30 -30.5t-25.5 -36.5t-30 -51z" />
<glyph unicode="&#x2000;" horiz-adv-x="955" />
<glyph unicode="&#x2001;" horiz-adv-x="1911" />
<glyph unicode="&#x2002;" horiz-adv-x="955" />
<glyph unicode="&#x2003;" horiz-adv-x="1911" />
<glyph unicode="&#x2004;" horiz-adv-x="637" />
<glyph unicode="&#x2005;" horiz-adv-x="477" />
<glyph unicode="&#x2006;" horiz-adv-x="318" />
<glyph unicode="&#x2007;" horiz-adv-x="318" />
<glyph unicode="&#x2008;" horiz-adv-x="238" />
<glyph unicode="&#x2009;" horiz-adv-x="382" />
<glyph unicode="&#x200a;" horiz-adv-x="106" />
<glyph unicode="&#x2010;" horiz-adv-x="778" d="M82 434v156h614v-156h-614z" />
<glyph unicode="&#x2011;" horiz-adv-x="778" d="M82 434v156h614v-156h-614z" />
<glyph unicode="&#x2012;" horiz-adv-x="778" d="M82 434v156h614v-156h-614z" />
<glyph unicode="&#x2013;" horiz-adv-x="1110" d="M102 481v125h906v-125h-906z" />
<glyph unicode="&#x2014;" horiz-adv-x="1904" d="M152 461v121h1601v-121h-1601z" />
<glyph unicode="&#x2018;" horiz-adv-x="378" d="M45 1180q0 50 20 97t45.5 79t68 65t67 48.5t63.5 37.5l29 -47q-47 -27 -76.5 -48t-58.5 -50.5t-44.5 -66.5t-19.5 -85h51q69 0 101.5 -35t32.5 -85q0 -44 -33 -79.5t-86 -35.5q-160 0 -160 205z" />
<glyph unicode="&#x2019;" horiz-adv-x="378" d="M63 1024q47 27 76.5 48t58.5 50.5t44.5 66.5t19.5 85h-51q-69 0 -101 35t-32 86q0 44 33 79t86 35q159 0 159 -204q0 -50 -20 -97t-45.5 -79t-67.5 -65.5t-67.5 -49t-63.5 -37.5z" />
<glyph unicode="&#x201a;" horiz-adv-x="378" d="M63 -246q47 27 76.5 48t58.5 50.5t44.5 66.5t19.5 85h-51q-69 0 -101 35t-32 86q0 44 33 79.5t86 35.5q159 0 159 -205q0 -50 -20 -97t-45.5 -79t-67.5 -65.5t-67.5 -49t-63.5 -37.5z" />
<glyph unicode="&#x201c;" horiz-adv-x="724" d="M45 1180q0 50 20.5 97t45.5 78t69 65t67 48t64 37l25 -45q-94 -54 -142.5 -109.5t-56.5 -146.5h51q127 0 127 -114q0 -45 -32 -80t-84 -35q-154 0 -154 205zM391 1180q0 50 20.5 97t45.5 78t69 65t67 48t64 37l25 -45q-94 -54 -142.5 -109.5t-56.5 -146.5h52 q127 0 127 -114q0 -44 -32 -79.5t-85 -35.5q-154 0 -154 205z" />
<glyph unicode="&#x201d;" horiz-adv-x="724" d="M63 1024q94 54 142.5 109.5t56.5 146.5h-51q-127 0 -127 115q0 44 32 79t85 35q82 0 117.5 -53t35.5 -151q0 -36 -10.5 -71t-25.5 -61.5t-41 -54t-46 -45t-51.5 -38.5t-47.5 -30.5t-44 -25.5zM410 1024q93 54 141.5 109.5t56.5 146.5h-51q-127 0 -127 115q0 44 32 79 t85 35q82 0 117.5 -53t35.5 -151q0 -36 -10.5 -71t-25.5 -61.5t-41 -54t-46 -45t-51.5 -38.5t-47.5 -30.5t-44 -25.5z" />
<glyph unicode="&#x201e;" horiz-adv-x="724" d="M63 -252q94 54 142.5 109.5t56.5 146.5h-51q-127 0 -127 115q0 44 32 79t85 35q82 0 117.5 -53t35.5 -151q0 -36 -10.5 -71t-25.5 -61.5t-41 -54t-46 -45t-51.5 -38.5t-47.5 -30.5t-44 -25.5zM410 -252q93 54 141.5 109.5t56.5 146.5h-51q-127 0 -127 115q0 44 32 79 t85 35q82 0 117.5 -53t35.5 -151q0 -36 -10.5 -71t-25.5 -61.5t-41 -54t-46 -45t-51.5 -38.5t-47.5 -30.5t-44 -25.5z" />
<glyph unicode="&#x2022;" horiz-adv-x="843" d="M143 666q0 114 82.5 196t196.5 82t196 -82t82 -196t-82 -194.5t-196 -80.5t-196.5 80.5t-82.5 194.5z" />
<glyph unicode="&#x2026;" horiz-adv-x="1683" d="M150 113q0 54 38.5 92.5t92.5 38.5t92.5 -38.5t38.5 -92.5t-38.5 -91.5t-92.5 -37.5t-92.5 37.5t-38.5 91.5zM711 113q0 54 38.5 92.5t92.5 38.5t92.5 -38.5t38.5 -92.5t-38.5 -91.5t-92.5 -37.5t-92.5 37.5t-38.5 91.5zM1272 113q0 54 38.5 92.5t92.5 38.5t92.5 -38.5 t38.5 -92.5t-38.5 -91.5t-92.5 -37.5t-92.5 37.5t-38.5 91.5z" />
<glyph unicode="&#x202f;" horiz-adv-x="382" />
<glyph unicode="&#x2039;" horiz-adv-x="718" d="M102 459q0 24 4.5 38t11.5 21.5t25 22.5q208 158 428 344l33 -27l-321 -403l321 -398l-33 -26q-393 318 -424 342q-22 17 -28.5 23t-11.5 21t-5 42z" />
<glyph unicode="&#x203a;" horiz-adv-x="718" d="M115 57l321 398l-321 403l32 27q220 -186 428 -344q18 -15 25 -22.5t11.5 -21.5t4.5 -38q0 -27 -5 -42t-11.5 -21t-28.5 -23q-31 -24 -424 -342z" />
<glyph unicode="&#x205f;" horiz-adv-x="477" />
<glyph unicode="&#x2122;" horiz-adv-x="1138" d="M88 1282v117h387v-117h-16q-7 25 -27.5 54t-38.5 32q-14 2 -49 2h-22v-334q0 -20 16 -28q38 -10 47 -11v-20h-207v20q46 8 49 9q17 8 17 28v336h-23q-35 0 -49 -2q-18 -3 -39.5 -32.5t-28.5 -53.5h-16zM532 977v20q44 9 54 17q20 14 20 82v213q0 34 -18 49q-25 18 -51 18 v23h147l135 -301l105 245q4 10 7 22t5 22.5t2 11.5h156v-23q-15 0 -45 -10q-17 -6 -17 -29v-301q0 -20 17 -28q9 -5 47 -11v-20h-213v20q3 1 16 2.5t24 3t15 3.5q16 11 16 30v297l-155 -350h-15q-16 50 -32 86l-111 256v-225q0 -64 21 -82q12 -12 57 -21v-20h-187z" />
<glyph unicode="&#x25fc;" horiz-adv-x="921" d="M0 0v922h922v-922h-922z" />
<glyph unicode="&#xfb01;" horiz-adv-x="1183" d="M4 842v80h209v63q0 247 154 414q50 53 130.5 92t170.5 39q92 0 156.5 -17t99 -48t49 -68t14.5 -84q0 -41 -27 -79t-81 -38q-41 0 -78 22.5t-37 69.5q0 30 6.5 52.5t16 38.5t10.5 18q-6 86 -142 86q-49 0 -93 -24.5t-81.5 -74.5t-59.5 -137t-22 -200v-125h330l248 16 l14 -14v-764q0 -73 56 -94q60 -23 90 -25v-41h-471v41q41 2 84 14q55 17 55 92v598q-7 67 -29 103h-377v-690q0 -71 56 -92q59 -23 102 -25v-41h-489v41q49 3 90 14q55 17 55 92v695h-209z" />
<glyph unicode="&#xfb02;" horiz-adv-x="1185" d="M4 838v84h209v63q0 247 154 414q50 54 130 92.5t169 38.5q117 0 213 -47l104 45l14 -15v-1353q0 -70 56 -94q51 -23 90 -25v-41h-473v41q44 2 86 14q57 18 57 92v1067q-65 18 -65 74q0 23 8 42.5t17 29.5t18 18.5t10 10.5q-12 96 -148 96q-49 0 -93 -25t-80.5 -75 t-58.5 -137.5t-22 -200.5v-125h252v-84h-252v-680q0 -71 56 -92q59 -23 102 -25v-41h-489v41q49 3 90 14q55 17 55 92v691h-209z" />
</font>
</defs>
</svg>
